<svg width="121" height="60" viewBox="0 0 121 60" fill="none" xmlns="http://www.w3.org/2000/svg">
<path fill-rule="evenodd" clip-rule="evenodd" d="M16.4975 42.616V33.77L22.5335 35.827V44.783L16.4975 42.616ZM29.6755 42.616V33.77L23.6395 35.827V44.783L29.6755 42.616ZM23.2255 31.388L28.8895 33.214L23.2255 35.137L17.1255 33.107L23.2255 31.388ZM9.31055 30.258V21.4L15.3465 23.456V32.412L9.31055 30.258ZM22.4905 30.257V21.4L16.4545 23.456V32.412L22.4905 30.257ZM16.0405 19.027L21.7045 20.854L16.0405 22.777L9.94055 20.747L16.0405 19.027ZM23.3955 30.257V21.4L29.4315 23.456V32.412L23.3955 30.257ZM36.5735 30.257V21.4L30.5375 23.456V32.412L36.5735 30.257ZM30.1335 19.027L35.7975 20.854L30.1335 22.777L24.0335 20.747L30.1335 19.027ZM30.5915 17.897V9.05004L36.6275 11.107V20.062L30.5915 17.897ZM43.7615 17.896V9.05004L37.7255 11.107V20.062L43.7615 17.896ZM37.3105 6.67004L42.9745 8.49604L37.3105 10.419L31.2105 8.38904L37.3105 6.67004ZM44.6656 17.897V9.05004L50.7015 11.107V20.062L44.6656 17.897ZM57.8335 17.897V9.05004L51.7975 11.107V20.062L57.8335 17.897ZM51.3935 6.67004L57.0575 8.49604L51.3935 10.419L45.2935 8.38904L51.3935 6.67004Z" fill="url(#paint0_linear_1915_8665)"/>
<path d="M47.6319 39.0181L45.6039 46.062H44.7239L43.1239 40.8301L41.6759 46.062H40.7779L38.6709 39.0181H39.7709L41.3059 44.2681L42.7659 39.0181H43.5699L45.1579 44.284L46.7359 39.0181H47.6209H47.6319ZM53.2399 43.96L54.2599 44.16C54.0726 44.7645 53.6908 45.2901 53.1739 45.655C52.6339 46.05 52.0019 46.2471 51.2739 46.2471C50.3139 46.2471 49.5359 45.909 48.9419 45.231C48.3479 44.553 48.0419 43.6661 48.0419 42.5681C48.0419 41.4461 48.3419 40.54 48.9679 39.848C49.2548 39.5142 49.6121 39.2481 50.0141 39.0688C50.4161 38.8895 50.8528 38.8015 51.2929 38.8111C52.2129 38.8111 52.9509 39.129 53.5109 39.766C54.0709 40.403 54.3569 41.3541 54.3709 42.6221H49.2579C49.2579 43.6871 49.4799 44.406 49.9259 44.778C50.3719 45.15 50.8419 45.336 51.3379 45.336C52.2329 45.336 52.8639 44.8741 53.2299 43.9491L53.2399 43.96ZM53.1799 41.8161C53.1699 41.4211 53.1059 41.0701 52.9849 40.7631C52.8639 40.4561 52.6599 40.195 52.3719 39.979C52.0839 39.763 51.7389 39.655 51.3349 39.655C51.0766 39.6509 50.8202 39.7009 50.5823 39.8018C50.3445 39.9027 50.1304 40.0524 49.9539 40.2411C49.5759 40.6411 49.3539 41.1561 49.3169 41.8161H53.1789H53.1799ZM56.3499 46.062H55.8229V36.562H56.9199V40.202C57.4199 39.289 58.1199 38.8321 58.9929 38.8321C59.7989 38.8321 60.4749 39.1521 61.0199 39.7891C61.5649 40.4261 61.8369 41.3531 61.8369 42.5671C61.8369 43.6141 61.5669 44.492 61.0329 45.202C60.4989 45.912 59.7989 46.267 58.9409 46.267C57.9849 46.267 57.2409 45.8131 56.7409 44.9071L56.3409 46.072L56.3499 46.062ZM56.9199 43.302C56.9699 44.025 57.1929 44.55 57.5849 44.876C57.9769 45.202 58.3919 45.376 58.8289 45.376C59.3859 45.376 59.8349 45.1341 60.1769 44.6501C60.5189 44.1661 60.6889 43.503 60.6889 42.662C60.6889 41.755 60.5239 41.042 60.1949 40.522C59.8659 40.002 59.4079 39.744 58.8229 39.744C58.3629 39.744 57.9489 39.929 57.5789 40.298C57.2089 40.667 56.9789 41.145 56.9209 41.73V43.3L56.9199 43.302ZM64.6329 44.236L65.6789 44.0201C65.9109 44.9051 66.6469 45.347 67.8829 45.347C68.3379 45.347 68.7249 45.2451 69.0409 45.041C69.1899 44.9527 69.3126 44.8261 69.3961 44.6743C69.4796 44.5226 69.521 44.3512 69.5159 44.1781C69.5159 43.6281 69.1129 43.278 68.3079 43.128L66.8249 42.8461C66.2449 42.7341 65.7819 42.516 65.4379 42.19C65.0939 41.864 64.9229 41.435 64.9229 40.89C64.9229 40.29 65.1569 39.8061 65.6269 39.4081C66.0969 39.0101 66.7269 38.812 67.5219 38.812C69.0499 38.812 69.9919 39.409 70.3519 40.604L69.3479 40.82C69.0599 40.09 68.4679 39.723 67.5729 39.723C67.1269 39.723 66.7609 39.8231 66.4759 39.9971C66.3424 40.0746 66.2322 40.1866 66.1569 40.3214C66.0815 40.4561 66.0439 40.6087 66.0479 40.7631C66.0479 41.2811 66.4129 41.6061 67.1419 41.7411L68.5119 41.993C69.9479 42.253 70.6649 42.9501 70.6649 44.0811C70.6712 44.3883 70.6012 44.6924 70.4612 44.966C70.3213 45.2396 70.1157 45.4743 69.8629 45.649C69.3289 46.047 68.6179 46.2471 67.7289 46.2471C66.0589 46.2471 65.0289 45.5731 64.6329 44.2271V44.236ZM76.4989 43.96L77.5189 44.16C77.3339 44.762 76.9719 45.26 76.4329 45.655C75.8939 46.05 75.2609 46.2471 74.5329 46.2471C73.5729 46.2471 72.7949 45.909 72.2009 45.231C71.6069 44.553 71.3009 43.6661 71.3009 42.5681C71.3009 41.4461 71.6089 40.54 72.2269 39.848C72.5138 39.5142 72.8711 39.2481 73.2731 39.0688C73.6751 38.8895 74.1118 38.8015 74.5519 38.8111C75.4699 38.8111 76.2099 39.129 76.7689 39.766C77.3279 40.403 77.6149 41.3541 77.6289 42.6221H72.5169C72.5169 43.6871 72.7389 44.406 73.1839 44.778C73.6289 45.15 74.0999 45.336 74.5969 45.336C75.4919 45.336 76.1229 44.8741 76.4889 43.9491L76.4989 43.96ZM76.4389 41.8161C76.4289 41.4211 76.3639 41.0701 76.2439 40.7631C76.1239 40.4561 75.9199 40.195 75.6319 39.979C75.3439 39.763 74.9989 39.655 74.5949 39.655C74.3364 39.6507 74.0798 39.7006 73.8418 39.8016C73.6038 39.9025 73.3895 40.0522 73.2129 40.2411C72.8349 40.6411 72.6129 41.1561 72.5769 41.8161H76.4389ZM79.9159 46.062H78.8189V39.0181H79.7789V40.66C80.1189 39.89 80.4589 39.3921 80.7989 39.1651C81.1389 38.9381 81.4989 38.8231 81.8469 38.8231C81.9912 38.8251 82.1354 38.8337 82.2789 38.849V39.8951H82.0569C81.4539 39.8951 80.9529 40.1191 80.5539 40.5671C80.1549 41.0151 79.9419 41.604 79.9139 42.333V46.063L79.9159 46.062ZM89.0959 39.0181L86.6639 46.062H85.5269L83.0139 39.0181H84.2279L86.1829 44.743L88.1229 39.0181H89.0959ZM91.1459 36.55V37.767H89.9739V36.55H91.1479H91.1459ZM91.1199 39.017V46.0611H90.0339V39.017H91.1309H91.1199ZM96.8539 43.5951L97.8409 43.7691C97.7009 44.5471 97.3929 45.156 96.9149 45.597C96.4369 46.038 95.8399 46.257 95.1149 46.257C94.1449 46.257 93.4149 45.897 92.8949 45.182C92.3749 44.467 92.1319 43.582 92.1319 42.557C92.1319 41.487 92.3999 40.5971 92.9369 39.8871C93.4739 39.1771 94.2039 38.822 95.1369 38.822C95.9029 38.822 96.5169 39.052 96.9799 39.522C97.4429 39.992 97.7299 40.572 97.8399 41.3L96.8529 41.488C96.6669 40.325 96.1059 39.744 95.1679 39.744C94.888 39.7346 94.6107 39.8013 94.3656 39.9369C94.1205 40.0724 93.9167 40.2719 93.7759 40.514C93.4509 41.027 93.2879 41.692 93.2879 42.51C93.2879 43.41 93.4479 44.1101 93.7719 44.6101C93.9112 44.845 94.1109 45.0384 94.3503 45.1701C94.5896 45.3018 94.8598 45.3671 95.1329 45.3591C96.0379 45.3591 96.6109 44.775 96.8529 43.606L96.8539 43.5951ZM104.03 43.96L105.05 44.16C104.863 44.7645 104.481 45.2901 103.964 45.655C103.424 46.05 102.792 46.2471 102.064 46.2471C101.104 46.2471 100.324 45.909 99.7309 45.231C99.1379 44.553 98.8309 43.6661 98.8309 42.5681C98.8309 41.4461 99.1309 40.54 99.7569 39.848C100.044 39.5142 100.401 39.2481 100.803 39.0688C101.205 38.8895 101.642 38.8015 102.082 38.8111C103.002 38.8111 103.742 39.129 104.3 39.766C104.858 40.403 105.146 41.3541 105.16 42.6221H100.048C100.048 43.6871 100.27 44.406 100.716 44.778C101.162 45.15 101.632 45.336 102.128 45.336C103.023 45.336 103.654 44.8741 104.02 43.9491L104.03 43.96ZM103.97 41.8161C103.96 41.4211 103.896 41.0701 103.775 40.7631C103.649 40.4492 103.437 40.1773 103.163 39.979C102.875 39.763 102.53 39.655 102.126 39.655C101.868 39.6504 101.611 39.7002 101.374 39.8011C101.136 39.9021 100.922 40.052 100.746 40.2411C100.37 40.6411 100.146 41.1561 100.109 41.8161H103.971H103.97ZM105.79 44.236L106.836 44.0201C107.068 44.9051 107.803 45.347 109.04 45.347C109.495 45.347 109.88 45.2451 110.198 45.041C110.347 44.9526 110.469 44.8259 110.553 44.6742C110.636 44.5224 110.677 44.3511 110.672 44.1781C110.672 43.6281 110.269 43.278 109.465 43.128L107.982 42.8461C107.402 42.7341 106.939 42.516 106.595 42.19C106.251 41.864 106.08 41.435 106.08 40.89C106.08 40.29 106.314 39.8061 106.784 39.4081C107.254 39.0101 107.884 38.812 108.679 38.812C110.207 38.812 111.149 39.409 111.509 40.604L110.505 40.82C110.217 40.09 109.625 39.723 108.73 39.723C108.284 39.723 107.93 39.8231 107.633 39.9971C107.499 40.0746 107.389 40.1866 107.314 40.3214C107.239 40.4561 107.201 40.6087 107.205 40.7631C107.205 41.2811 107.57 41.6061 108.299 41.7411L109.669 41.993C111.105 42.253 111.822 42.9501 111.822 44.0811C111.828 44.3883 111.758 44.6924 111.618 44.966C111.478 45.2396 111.273 45.4743 111.02 45.649C110.486 46.047 109.775 46.2471 108.886 46.2471C107.218 46.2471 106.186 45.5731 105.791 44.2271L105.79 44.236Z" fill="url(#paint1_linear_1915_8665)" stroke="url(#paint2_linear_1915_8665)" stroke-width="0.213"/>
<path fill-rule="evenodd" clip-rule="evenodd" d="M81.0541 23.964V22.272C81.0528 22.2152 81.063 22.1586 81.0841 22.1058C81.1052 22.0531 81.1368 22.0051 81.177 21.9649C81.2172 21.9247 81.2652 21.8931 81.318 21.872C81.3708 21.8508 81.4273 21.8406 81.4841 21.842H89.0671C89.3091 21.842 89.5041 22.018 89.5051 22.269V23.719C89.5031 23.962 89.2981 24.279 88.9351 24.784L85.0081 30.392C86.4661 30.358 88.0081 30.576 89.3331 31.322C89.6331 31.49 89.7111 31.738 89.7351 31.982V33.787C89.7351 34.037 89.4631 34.324 89.1771 34.174C86.8431 32.951 83.7471 32.817 81.1651 34.188C80.9011 34.328 80.6251 34.045 80.6251 33.796V32.08C80.6251 31.805 80.6301 31.336 80.9071 30.917L85.4571 24.387H81.4941C81.437 24.3896 81.3799 24.3805 81.3264 24.3602C81.2729 24.34 81.2241 24.309 81.183 24.2692C81.1419 24.2294 81.1093 24.1816 81.0873 24.1288C81.0654 24.076 81.0544 24.0192 81.0551 23.962L81.0541 23.964ZM53.9171 34.532H51.6101C51.3901 34.518 51.2151 34.352 51.1981 34.132L51.1991 22.292C51.1991 22.055 51.3991 21.866 51.6441 21.866L53.7921 21.865C54.0171 21.877 54.1971 22.047 54.2121 22.263V23.809H54.2551C54.8151 22.314 55.8701 21.616 57.2911 21.616C58.7341 21.616 59.6381 22.314 60.2851 23.809C60.8451 22.314 62.1151 21.616 63.4721 21.616C64.4421 21.616 65.4961 22.016 66.1421 22.912C66.8741 23.908 66.7241 25.354 66.7241 26.625L66.7221 34.097C66.7221 34.334 66.5221 34.523 66.2771 34.523H63.9741C63.7441 34.508 63.5601 34.325 63.5601 34.098V27.83C63.5601 27.33 63.6031 26.086 63.4951 25.612C63.3231 24.815 62.7951 24.59 62.1391 24.59C61.5791 24.59 60.9971 24.964 60.7591 25.562C60.5211 26.16 60.5441 27.157 60.5441 27.83V34.106C60.5441 34.343 60.3441 34.532 60.0991 34.532H57.7941C57.5621 34.517 57.3801 34.334 57.3801 34.107L57.3781 27.83C57.3781 26.51 57.5931 24.566 55.9581 24.566C54.3001 24.566 54.3641 26.459 54.3641 27.83V34.106C54.3641 34.343 54.1641 34.532 53.9191 34.532H53.9171ZM95.0771 21.625C98.4741 21.625 100.311 24.565 100.311 28.303C100.311 31.916 98.2811 34.781 95.0771 34.781C91.7441 34.781 89.9271 31.841 89.9271 28.178C89.9271 24.491 91.7651 21.625 95.0771 21.625ZM95.0991 24.347C93.4111 24.347 93.3041 26.664 93.3041 28.109C93.3041 29.554 93.2841 32.339 95.0781 32.339C96.8521 32.339 96.9381 30.152 96.9381 28.632C96.9381 27.636 96.8961 26.439 96.5981 25.492C96.3411 24.67 95.8281 24.346 95.1021 24.346L95.0991 24.347ZM105.227 34.532H102.929C102.699 34.517 102.515 34.334 102.515 34.107L102.511 22.262C102.531 22.045 102.711 21.876 102.954 21.876L105.094 21.875C105.189 21.8786 105.281 21.9129 105.354 21.9727C105.428 22.0326 105.481 22.1148 105.504 22.207V24.007H105.548C106.194 22.387 107.098 21.615 108.692 21.615C109.725 21.615 110.738 21.989 111.384 23.01C111.987 23.957 111.987 25.55 111.987 26.698V34.148C111.961 34.348 111.773 34.521 111.545 34.521H109.232C109.019 34.507 108.847 34.351 108.832 34.148V27.718C108.832 26.423 108.982 24.518 107.389 24.518C106.829 24.518 106.312 24.892 106.054 25.465C105.731 26.188 105.687 26.91 105.687 27.708V34.084C105.683 34.321 105.484 34.51 105.237 34.51L105.227 34.532ZM75.2721 28.877C75.2721 29.777 75.2941 30.525 74.8401 31.324C74.4731 31.974 73.8901 32.374 73.2431 32.374C72.3581 32.374 71.8401 31.7 71.8401 30.701C71.8401 28.737 73.6031 28.379 75.2701 28.379V28.879L75.2721 28.877ZM77.5981 34.502C77.4451 34.639 77.2251 34.648 77.0531 34.556C76.2871 33.919 76.1501 33.626 75.7311 33.018C74.4651 34.318 73.5681 34.695 71.9281 34.695C69.9861 34.695 68.4751 33.495 68.4751 31.099C68.4751 29.226 69.4891 27.953 70.9351 27.329C72.1871 26.779 73.9351 26.679 75.2731 26.529V26.229C75.2731 25.679 75.3161 25.031 74.9931 24.556C74.7131 24.131 74.1731 23.956 73.6981 23.956C72.8181 23.956 72.0361 24.406 71.8431 25.342C71.8031 25.55 71.6511 25.755 71.4431 25.766L69.2071 25.524C69.0071 25.481 68.8071 25.33 68.8631 25.042C69.3771 22.329 71.8271 21.51 74.0231 21.51C75.1451 21.51 76.6231 21.81 77.4971 22.66C78.6201 23.71 78.5111 25.107 78.5111 26.63V30.224C78.5111 31.304 78.9611 31.779 79.3811 32.362C79.5281 32.562 79.5611 32.822 79.3731 32.975L77.6031 34.507L77.5971 34.501L77.5981 34.502ZM45.2911 28.877C45.2911 29.777 45.3131 30.525 44.8591 31.324C44.4921 31.974 43.9091 32.374 43.2621 32.374C42.3771 32.374 41.8591 31.7 41.8591 30.701C41.8591 28.737 43.6211 28.379 45.2891 28.379V28.879L45.2911 28.877ZM47.6171 34.502C47.4641 34.639 47.2441 34.648 47.0721 34.556C46.3061 33.919 46.1681 33.626 45.7501 33.018C44.4841 34.318 43.5871 34.695 41.9471 34.695C40.0051 34.695 38.4941 33.495 38.4941 31.099C38.4941 29.226 39.5081 27.953 40.9541 27.329C42.2061 26.779 43.9541 26.679 45.2921 26.529V26.229C45.2921 25.679 45.3351 25.031 45.0121 24.556C44.7321 24.131 44.1921 23.956 43.7171 23.956C42.8371 23.956 42.0551 24.406 41.8621 25.342C41.8221 25.55 41.6621 25.755 41.4621 25.766L39.2261 25.524C39.0261 25.481 38.8261 25.33 38.8821 25.042C39.3951 22.329 41.8451 21.51 44.0421 21.51C45.1641 21.51 46.6421 21.81 47.5171 22.66C48.6391 23.71 48.5311 25.107 48.5311 26.63V30.224C48.5311 31.304 48.9811 31.779 49.4011 32.362C49.5481 32.562 49.5811 32.822 49.3941 32.975L47.6341 34.507L47.6281 34.501L47.6171 34.502Z" fill="url(#paint3_linear_1915_8665)"/>
<defs>
<linearGradient id="paint0_linear_1915_8665" x1="33.572" y1="6.67004" x2="33.572" y2="44.783" gradientUnits="userSpaceOnUse">
<stop stop-color="#42389E"/>
<stop offset="1" stop-color="#0F1026"/>
</linearGradient>
<linearGradient id="paint1_linear_1915_8665" x1="75.2466" y1="36.55" x2="75.2466" y2="46.267" gradientUnits="userSpaceOnUse">
<stop stop-color="#42389E"/>
<stop offset="1" stop-color="#0F1026"/>
</linearGradient>
<linearGradient id="paint2_linear_1915_8665" x1="75.2466" y1="36.55" x2="75.2466" y2="46.267" gradientUnits="userSpaceOnUse">
<stop stop-color="#42389E"/>
<stop offset="1" stop-color="#0F1026"/>
</linearGradient>
<linearGradient id="paint3_linear_1915_8665" x1="75.2406" y1="21.51" x2="75.2406" y2="34.781" gradientUnits="userSpaceOnUse">
<stop stop-color="#42389E"/>
<stop offset="1" stop-color="#0F1026"/>
</linearGradient>
</defs>
</svg>
