<svg width="121" height="60" viewBox="0 0 121 60" fill="none" xmlns="http://www.w3.org/2000/svg">
<path d="M25.6378 47.723V40.743C33.0278 40.743 38.7628 33.415 35.9258 25.638C34.8858 22.78 32.5778 20.474 29.6998 19.433C21.9228 16.616 14.5948 22.333 14.5948 29.721H7.63379C7.63379 17.94 19.0338 8.75597 31.3738 12.614C36.7638 14.308 41.0698 18.594 42.7438 23.984C46.6018 36.334 37.4158 47.723 25.6378 47.723Z" fill="url(#paint0_linear_1915_8673)"/>
<path fill-rule="evenodd" clip-rule="evenodd" d="M25.6574 33.822V40.782H18.6974V33.822H25.6574ZM18.6974 40.782V46.1H13.3694V40.772L18.6974 40.782ZM13.3694 40.782H8.89941V36.312H13.3694V40.782Z" fill="url(#paint1_linear_1915_8673)"/>
<path d="M61.3879 13.867C59.8079 12.754 57.7879 12.215 55.4879 12.215H50.4609V28.195H55.5339C57.8319 28.195 59.8339 27.62 61.4339 26.435C62.2959 25.835 62.9779 24.963 63.4809 23.885C63.9479 22.808 64.1989 21.515 64.1989 20.115C64.1989 18.715 63.9489 17.458 63.4809 16.381C62.9779 15.304 62.2959 14.441 61.3979 13.867H61.3879ZM53.4159 14.907H54.9959C56.7559 14.907 58.1919 15.267 59.2959 15.947C60.5159 16.701 61.1259 18.102 61.1259 20.112C61.1259 22.195 60.5259 23.667 59.2959 24.457C58.2559 25.139 56.8179 25.497 55.0229 25.497H53.4069V14.9L53.4159 14.907ZM67.6719 12C67.1689 12 66.7739 12.18 66.4149 12.503C66.2515 12.6609 66.1225 12.8509 66.036 13.061C65.9494 13.2711 65.9072 13.4968 65.9119 13.724C65.9119 14.227 66.0919 14.622 66.4149 14.981C66.7379 15.304 67.1689 15.484 67.6719 15.484C68.1393 15.4802 68.588 15.3006 68.9289 14.981C69.2519 14.658 69.4319 14.227 69.4319 13.724C69.4367 13.4968 69.3945 13.2711 69.3079 13.061C69.2214 12.8509 69.0923 12.6609 68.9289 12.503C68.5689 12.18 68.1289 12 67.6719 12ZM66.2339 16.92H69.0709V28.195H66.2339V16.92ZM79.3779 17.853C78.5159 17.099 77.5829 16.633 76.5409 16.633C74.9609 16.633 73.6679 17.173 72.6629 18.249C71.6579 19.289 71.1189 20.655 71.1189 22.307C71.1189 23.887 71.6219 25.252 72.6269 26.329C73.6319 27.369 74.9609 27.909 76.5049 27.909C77.5819 27.909 78.5519 27.622 79.3049 27.011V27.261C79.3049 28.195 79.0549 28.913 78.5509 29.416C78.0469 29.919 77.3659 30.17 76.5039 30.17C75.2109 30.17 74.3839 29.667 73.3799 28.303L71.4399 30.17L71.4759 30.242C71.9059 30.817 72.5159 31.392 73.3789 31.93C74.2049 32.47 75.2819 32.756 76.5389 32.756C78.2269 32.756 79.5909 32.253 80.5969 31.212C81.6029 30.171 82.1049 28.806 82.1049 27.118V16.884H79.3049V17.854L79.3779 17.853ZM78.6339 24.532C78.1309 25.107 77.4839 25.358 76.6939 25.358C75.8679 25.358 75.2579 25.071 74.7539 24.532C74.2509 23.957 74.0359 23.239 74.0359 22.332C74.0359 21.398 74.2859 20.68 74.7539 20.106C75.2219 19.532 75.9039 19.28 76.6939 19.28C77.5199 19.28 78.1299 19.567 78.6339 20.106C79.1369 20.681 79.3879 21.436 79.3879 22.332C79.3879 23.228 79.1379 23.948 78.6339 24.532ZM84.5839 16.92H87.4209V28.195H84.5839V16.92ZM86.0209 12C85.5179 12 85.1229 12.18 84.7639 12.503C84.6005 12.6609 84.4715 12.8509 84.385 13.061C84.2984 13.2711 84.2562 13.4968 84.2609 13.724C84.2609 14.227 84.4409 14.622 84.7639 14.981C85.0869 15.304 85.5179 15.484 86.0209 15.484C86.4883 15.4802 86.937 15.3006 87.2779 14.981C87.6009 14.658 87.7809 14.227 87.7809 13.724C87.7857 13.4968 87.7435 13.2711 87.6569 13.061C87.5704 12.8509 87.4413 12.6609 87.2779 12.503C86.9179 12.18 86.5239 12 86.0209 12ZM93.6339 13.867H90.8339V16.919H89.2179V19.504H90.8339V24.172C90.8339 25.644 91.1209 26.686 91.6959 27.296C92.2709 27.906 93.3119 28.194 94.7479 28.194L96.1129 28.158H96.2569V25.573L95.2869 25.609C94.6049 25.609 94.1739 25.501 93.9569 25.249C93.7399 24.997 93.6339 24.496 93.6339 23.742V19.47H96.2909V16.885H93.6339V13.87V13.867ZM109.577 12.18H112.414V28.195H109.577V12.18Z" fill="url(#paint2_linear_1915_8673)"/>
<path d="M106.021 17.78C105.159 17.062 103.974 16.667 102.501 16.667C101.567 16.667 100.671 16.882 99.8815 17.267C99.1275 17.627 98.4095 18.272 97.9415 19.062L97.9775 19.098L99.8075 20.822C100.561 19.637 101.387 19.206 102.5 19.206C103.1 19.206 103.577 19.35 103.972 19.673C104.332 19.996 104.547 20.391 104.547 20.893V21.433C103.829 21.218 103.147 21.11 102.464 21.11C101.064 21.11 99.9145 21.433 99.0645 22.08C98.2145 22.727 97.7715 23.696 97.7715 24.917C97.7715 25.994 98.1315 26.82 98.8845 27.467C99.6385 28.067 100.536 28.401 101.614 28.401C102.692 28.401 103.697 27.971 104.63 27.216V28.15H107.43V20.896C107.322 19.566 106.89 18.49 106.03 17.772L106.021 17.78ZM100.994 23.884C101.317 23.669 101.794 23.561 102.359 23.561C103.041 23.561 103.759 23.705 104.514 23.956V25.069C103.914 25.644 103.078 25.931 102.072 25.931C101.569 25.931 101.21 25.823 100.922 25.608C100.797 25.5106 100.696 25.3852 100.627 25.2418C100.559 25.0984 100.524 24.9409 100.527 24.782C100.517 24.6041 100.555 24.4268 100.638 24.2688C100.72 24.1108 100.843 23.9778 100.994 23.884Z" fill="url(#paint3_linear_1915_8673)"/>
<path d="M75.8054 43.7C75.3024 44.275 74.7654 44.777 74.3694 45.03C73.9734 45.283 73.4714 45.425 72.8974 45.425C72.0714 45.425 71.3894 45.138 70.8504 44.491C70.3104 43.891 70.0244 43.055 70.0244 42.121C70.0244 41.151 70.3114 40.361 70.8504 39.751C71.3894 39.141 72.0704 38.817 72.8974 38.817C73.7954 38.817 74.7644 39.392 75.5904 40.361L77.4574 38.566C76.2374 36.986 74.6924 36.232 72.8254 36.232C71.2814 36.232 69.9254 36.807 68.8034 37.92C67.6814 39.033 67.1514 40.434 67.1514 42.12C67.1514 43.806 67.7264 45.208 68.8034 46.32C69.9164 47.435 71.2434 48.02 72.8234 48.02C74.8704 48.02 76.5234 47.122 77.6714 45.506L75.8034 43.7H75.8054ZM87.4754 38.027C87.0804 37.452 86.5414 37.022 85.8594 36.697C85.1774 36.372 84.3874 36.194 83.5254 36.194C81.9454 36.194 80.6524 36.769 79.6834 37.918C78.7494 39.068 78.2474 40.468 78.2474 42.155C78.2474 43.879 78.7874 45.279 79.7914 46.355C80.8314 47.432 82.1974 47.971 83.8854 47.971C85.7884 47.971 87.3684 47.171 88.5534 45.673L88.6254 45.601L86.7584 43.806C86.5784 44.021 86.3284 44.236 86.1124 44.452C85.8254 44.702 85.5724 44.919 85.2864 45.052C84.8402 45.2723 84.3479 45.383 83.8504 45.375C83.0504 45.375 82.4144 45.16 81.9104 44.693C81.4434 44.263 81.1564 43.688 81.0844 42.969H88.5894L88.6254 41.929C88.6254 41.211 88.5174 40.493 88.3384 39.846C88.1594 39.199 87.8714 38.589 87.4764 38.016L87.4754 38.027ZM81.2634 40.684C81.4074 40.144 81.6584 39.679 82.0174 39.354C82.4124 38.959 82.9154 38.779 83.4894 38.779C84.1714 38.779 84.7094 38.959 85.0694 39.354C85.4078 39.7183 85.6108 40.1878 85.6444 40.684H81.2634Z" fill="url(#paint4_linear_1915_8673)"/>
<path d="M98.3555 37.3C97.4935 36.582 96.3085 36.187 94.8355 36.187C93.9015 36.187 93.0055 36.402 92.2155 36.787C91.4615 37.147 90.7435 37.792 90.2755 38.582L90.3115 38.618L92.1415 40.342C92.8955 39.157 93.7215 38.726 94.8345 38.726C95.4345 38.726 95.9115 38.87 96.3065 39.193C96.6665 39.516 96.8815 39.911 96.8815 40.413V40.953C96.1635 40.738 95.4815 40.63 94.7985 40.63C93.3985 40.63 92.2485 40.953 91.3985 41.6C90.5485 42.247 90.1055 43.216 90.1055 44.437C90.1055 45.514 90.4655 46.34 91.2185 46.987C91.9725 47.587 92.8705 47.921 93.9485 47.921C95.0265 47.921 96.0315 47.491 96.9645 46.736V47.67H99.7645V40.416C99.6565 39.086 99.2245 38.01 98.3645 37.292L98.3555 37.3ZM93.3285 43.404C93.6515 43.189 94.1285 43.081 94.6935 43.081C95.3755 43.081 96.0935 43.225 96.8485 43.476V44.589C96.2485 45.164 95.4125 45.451 94.4065 45.451C93.9035 45.451 93.5445 45.343 93.2565 45.128C93.1308 45.0306 93.0297 44.9052 92.9611 44.7618C92.8925 44.6184 92.8584 44.4609 92.8615 44.302C92.8513 44.1242 92.8893 43.9469 92.9715 43.7888C93.0537 43.6308 93.177 43.4978 93.3285 43.404Z" fill="url(#paint5_linear_1915_8673)"/>
<path d="M110.564 37.515C109.764 36.617 108.661 36.185 107.26 36.185C106.147 36.185 105.213 36.508 104.53 37.155V36.473H101.765V47.713H104.602V41.5C104.602 40.638 104.817 39.956 105.202 39.5C105.587 39.044 106.136 38.782 106.89 38.782C107.536 38.782 108.003 38.997 108.362 39.428C108.721 39.859 108.902 40.468 108.902 41.188V47.723H111.739V41.188C111.739 39.644 111.344 38.388 110.554 37.525L110.564 37.515ZM57.4572 47.965C55.2669 47.9648 53.1663 47.0945 51.6175 45.5457C50.0687 43.9969 49.1985 41.8964 49.1982 39.706C49.1985 37.5157 50.0687 35.4151 51.6175 33.8663C53.1663 32.3175 55.2669 31.4473 57.4572 31.447C59.6476 31.4473 61.7481 32.3175 63.2969 33.8663C64.8457 35.4151 65.716 37.5157 65.7162 39.706C65.716 41.8964 64.8457 43.9969 63.2969 45.5457C61.7481 47.0945 59.6476 47.9648 57.4572 47.965ZM57.4572 34.365C54.5122 34.365 52.1072 36.771 52.1072 39.715C52.1072 42.659 54.5132 45.065 57.4572 45.065C60.4012 45.065 62.8072 42.659 62.8072 39.715C62.8072 36.771 60.4012 34.365 57.4572 34.365Z" fill="url(#paint6_linear_1915_8673)"/>
<defs>
<linearGradient id="paint0_linear_1915_8673" x1="25.6353" y1="11.7208" x2="25.6353" y2="47.724" gradientUnits="userSpaceOnUse">
<stop stop-color="#42389E"/>
<stop offset="1" stop-color="#0F1026"/>
</linearGradient>
<linearGradient id="paint1_linear_1915_8673" x1="17.2784" y1="33.822" x2="17.2784" y2="46.1" gradientUnits="userSpaceOnUse">
<stop stop-color="#42389E"/>
<stop offset="1" stop-color="#0F1026"/>
</linearGradient>
<linearGradient id="paint2_linear_1915_8673" x1="81.4374" y1="12" x2="81.4374" y2="32.756" gradientUnits="userSpaceOnUse">
<stop stop-color="#42389E"/>
<stop offset="1" stop-color="#0F1026"/>
</linearGradient>
<linearGradient id="paint3_linear_1915_8673" x1="102.601" y1="16.667" x2="102.601" y2="28.401" gradientUnits="userSpaceOnUse">
<stop stop-color="#42389E"/>
<stop offset="1" stop-color="#0F1026"/>
</linearGradient>
<linearGradient id="paint4_linear_1915_8673" x1="77.8884" y1="36.194" x2="77.8884" y2="48.02" gradientUnits="userSpaceOnUse">
<stop stop-color="#42389E"/>
<stop offset="1" stop-color="#0F1026"/>
</linearGradient>
<linearGradient id="paint5_linear_1915_8673" x1="94.935" y1="36.187" x2="94.935" y2="47.921" gradientUnits="userSpaceOnUse">
<stop stop-color="#42389E"/>
<stop offset="1" stop-color="#0F1026"/>
</linearGradient>
<linearGradient id="paint6_linear_1915_8673" x1="80.4687" y1="31.447" x2="80.4687" y2="47.965" gradientUnits="userSpaceOnUse">
<stop stop-color="#42389E"/>
<stop offset="1" stop-color="#0F1026"/>
</linearGradient>
</defs>
</svg>
