<svg width="156" height="60" viewBox="0 0 156 60" fill="none" xmlns="http://www.w3.org/2000/svg">
<path d="M23.0964 23.5735L24.2404 23.5935L27.3484 20.4855L27.4984 19.1685C25.0284 16.9715 21.7784 15.6345 18.2214 15.6345C11.7814 15.6345 6.34535 20.0165 4.73535 25.9525C5.07535 25.7155 5.80035 25.8925 5.80035 25.8925L12.0124 24.8705C12.0124 24.8705 12.3324 24.3405 12.4924 24.3735C13.8258 22.9148 15.6655 22.0198 17.6363 21.8711C19.607 21.7225 21.5592 22.3313 23.0964 23.5735Z" fill="url(#paint0_linear_1915_8658)"/>
<path d="M31.7259 25.9635C31.0118 23.3362 29.5466 20.9743 27.5099 19.1675L23.1079 23.5695C24.0113 24.2955 24.7403 25.215 25.2413 26.2601C25.7424 27.3053 26.0026 28.4495 26.0029 29.6085V30.3855C28.1449 30.3855 29.8829 32.1285 29.8829 34.2655C29.8829 36.4025 28.1399 38.1455 26.0029 38.1455H18.2409L17.4639 38.9255V43.5835L18.2409 44.3565H26.0029C28.6761 44.3493 31.2376 43.2838 33.1272 41.3929C35.0168 39.502 36.0806 36.9397 36.0859 34.2665C36.0819 30.8305 34.3499 27.7865 31.7159 25.9635H31.7259Z" fill="url(#paint1_linear_1915_8658)"/>
<path d="M10.4603 44.3634H18.2203V38.1514H10.4603C9.90922 38.1517 9.36455 38.0334 8.86328 37.8044L7.74328 38.1474L4.63528 41.2554L4.36328 42.3054C6.11194 43.6481 8.25664 44.3726 10.4613 44.3654L10.4603 44.3634Z" fill="url(#paint2_linear_1915_8658)"/>
<path d="M10.4602 24.1765C7.78442 24.1807 5.21943 25.2456 3.32735 27.1377C1.43527 29.0297 0.370442 31.5947 0.366211 34.2705C0.366196 35.8286 0.72739 37.3655 1.42142 38.7606C2.11546 40.1556 3.12344 41.3707 4.36621 42.3105L8.86621 37.8105C8.18457 37.5038 7.60603 37.0068 7.20013 36.3791C6.79424 35.7515 6.57828 35.02 6.57821 34.2725C6.57821 32.1305 8.32121 30.3925 10.4582 30.3925C11.2054 30.3938 11.9364 30.6103 12.5638 31.016C13.1912 31.4218 13.6885 31.9996 13.9962 32.6805L18.4962 28.1805C16.6502 25.7505 13.7362 24.1805 10.4562 24.1805L10.4602 24.1765Z" fill="url(#paint3_linear_1915_8658)"/>
<path d="M51.8599 35.4289C49.7399 35.4289 47.9199 34.6789 46.3859 33.1789C44.8519 31.6789 44.0859 29.8749 44.0859 27.7709C44.0859 25.6669 44.8509 23.8629 46.3859 22.3629C47.9209 20.8629 49.7429 20.1119 51.8599 20.1119C52.8311 20.0977 53.7953 20.277 54.6965 20.6393C55.5977 21.0015 56.4178 21.5395 57.1089 22.2219L55.6319 23.6989C54.6212 22.7215 53.2647 22.1841 51.8589 22.2039C50.3289 22.2039 49.0289 22.7439 47.9629 23.8309C47.4443 24.3458 47.0355 24.9605 46.761 25.6379C46.4865 26.3152 46.3521 27.0411 46.3659 27.7719C46.3659 29.3179 46.8959 30.6289 47.9629 31.7119C48.4644 32.2379 49.0695 32.6542 49.7402 32.9343C50.4108 33.2143 51.1323 33.3521 51.8589 33.3389C53.4169 33.3389 54.7039 32.8389 55.7289 31.8049C56.3289 31.2049 56.7289 30.3049 56.8689 29.1699H51.8629V27.0779H58.9069C58.9819 27.4499 59.0069 27.8779 59.0069 28.3779C59.0069 30.4339 58.4039 32.0639 57.1939 33.2729C55.8219 34.7079 54.0439 35.4229 51.8489 35.4229L51.8599 35.4289ZM68.2299 34.0289C67.2699 34.9689 66.0999 35.4289 64.7179 35.4289C63.3359 35.4289 62.1639 34.9589 61.2059 34.0289C60.2479 33.0989 59.7679 31.9159 59.7679 30.5089C59.7679 29.1019 60.2479 27.9289 61.2059 26.9889C62.1639 26.0489 63.3359 25.5889 64.7179 25.5889C66.0999 25.5889 67.2719 26.0589 68.2299 26.9889C69.1879 27.9189 69.6679 29.1049 69.6679 30.5089C69.6679 31.9129 69.1879 33.0889 68.2299 34.0289ZM62.7559 32.6489C63.0054 32.92 63.3091 33.1357 63.6472 33.2819C63.9854 33.4282 64.3505 33.5017 64.7189 33.4979C65.4789 33.4979 66.1329 33.2159 66.6819 32.6479C67.2309 32.0799 67.5039 31.3679 67.5039 30.5079C67.5039 29.6379 67.2339 28.9199 66.6909 28.3579C66.1479 27.7959 65.4929 27.5179 64.7189 27.5179C64.3498 27.5122 63.9835 27.584 63.6439 27.7287C63.3042 27.8734 62.9986 28.0877 62.7469 28.3579C62.2039 28.9179 61.9339 29.6339 61.9339 30.5079C61.9339 31.3659 62.2069 32.0809 62.7559 32.6479V32.6489ZM79.0289 34.0289C78.0689 34.9689 76.8989 35.4289 75.5169 35.4289C74.1349 35.4289 72.9629 34.9589 72.0049 34.0289C71.0469 33.0989 70.5669 31.9159 70.5669 30.5089C70.5669 29.1019 71.0469 27.9289 72.0049 26.9889C72.9629 26.0489 74.1349 25.5889 75.5169 25.5889C76.8989 25.5889 78.0709 26.0589 79.0289 26.9889C79.9869 27.9189 80.4669 29.1049 80.4669 30.5089C80.4669 31.9129 79.9869 33.0889 79.0289 34.0289ZM73.5549 32.6489C73.8044 32.92 74.1081 33.1357 74.4462 33.2819C74.7844 33.4282 75.1495 33.5017 75.5179 33.4979C76.2779 33.4979 76.9319 33.2159 77.4809 32.6479C78.0299 32.0799 78.3029 31.3679 78.3029 30.5079C78.3029 29.6379 78.0329 28.9199 77.4899 28.3579C76.9469 27.7959 76.2919 27.5179 75.5179 27.5179C75.1488 27.5122 74.7825 27.584 74.4429 27.7287C74.1032 27.8734 73.7976 28.0877 73.5459 28.3579C73.0029 28.9179 72.7329 29.6339 72.7329 30.5079C72.7329 31.3659 73.0059 32.0809 73.5549 32.6479V32.6489ZM86.1279 39.8689C85.0329 39.8689 84.1109 39.5749 83.3639 38.9889C82.6169 38.4029 82.0819 37.7249 81.7579 36.9509L83.6459 36.1679C83.8439 36.6419 84.1459 37.0529 84.5789 37.4019C85.0119 37.7509 85.5189 37.9239 86.1309 37.9239C86.9529 37.9239 87.5989 37.6739 88.0639 37.1769C88.5289 36.6799 88.7639 35.9609 88.7639 35.0269V34.3269H88.6889C88.0889 35.0739 87.2119 35.4489 86.0929 35.4489C84.8349 35.4489 83.7329 34.9689 82.7859 34.0109C82.3259 33.558 81.9628 33.0164 81.7187 32.4188C81.4746 31.8212 81.3546 31.1803 81.3659 30.5349C81.3544 29.8854 81.4742 29.2403 81.7182 28.6384C81.9622 28.0364 82.3254 27.4899 82.7859 27.0319C83.7309 26.0689 84.8359 25.5849 86.0929 25.5849C86.6529 25.5849 87.1609 25.6899 87.6149 25.9029C88.0689 26.1159 88.4279 26.3769 88.6889 26.6859H88.7639V25.8919H90.8199V34.7489C90.8199 36.4689 90.3819 37.7529 89.5019 38.6089C88.6219 39.4589 87.4999 39.8889 86.1289 39.8889L86.1279 39.8689ZM86.2779 33.4969C86.6344 33.5032 86.9879 33.4303 87.3128 33.2835C87.6377 33.1366 87.926 32.9196 88.1569 32.6479C88.6609 32.0809 88.9129 31.3749 88.9129 30.5259C88.9129 29.6679 88.6609 28.9499 88.1569 28.3759C87.9274 28.102 87.6395 27.8828 87.3145 27.7344C86.9894 27.5859 86.6353 27.512 86.2779 27.5179C85.5179 27.5179 84.8699 27.8059 84.3359 28.3759C83.8019 28.9459 83.5319 29.6639 83.5319 30.5259C83.5319 31.3719 83.7989 32.0809 84.3359 32.6479C84.8729 33.2149 85.5189 33.4969 86.2779 33.4969ZM94.4799 20.6319V35.1319H92.3129V20.6319H94.4799ZM100.42 35.4279C99.0239 35.4279 97.8599 34.9539 96.9259 34.0079C95.9919 33.0619 95.5239 31.8919 95.5239 30.4959C95.5239 29.0519 95.9739 27.8659 96.8779 26.9459C97.302 26.4996 97.8141 26.1462 98.3818 25.9079C98.9495 25.6697 99.5604 25.5519 100.176 25.5619C100.773 25.5619 101.329 25.6699 101.839 25.8889C102.313 26.0832 102.745 26.3685 103.109 26.7289C103.413 27.0313 103.682 27.3664 103.913 27.7279C104.103 28.0368 104.266 28.3621 104.399 28.6999L104.624 29.2599L98.0299 31.9919C98.5299 32.9879 99.3299 33.4869 100.422 33.4869C101.418 33.4869 102.229 33.0339 102.85 32.1239L104.53 33.2459C104.155 33.8059 103.627 34.3109 102.942 34.7589C102.257 35.2069 101.414 35.4289 100.418 35.4289L100.42 35.4279ZM97.6739 30.3479L102.074 28.5179C101.948 28.2059 101.72 27.9539 101.374 27.7619C101.026 27.567 100.633 27.4676 100.234 27.4739C99.5979 27.4739 99.0039 27.7339 98.4509 28.2569C97.8979 28.7799 97.6309 29.4789 97.6559 30.3489L97.6739 30.3479ZM116.004 35.4279C114.034 35.4279 112.384 34.7619 111.052 33.4279C109.72 32.0939 109.052 30.4329 109.052 28.4399C109.052 26.4469 109.718 24.7839 111.052 23.4519C112.386 22.1199 114.035 21.4519 116.004 21.4519C118.021 21.4519 119.66 22.1819 120.917 23.6369L119.722 24.7969C118.822 23.6629 117.572 23.0969 116.002 23.0969C114.542 23.0969 113.316 23.5889 112.302 24.5739C111.288 25.5589 110.798 26.8459 110.798 28.4399C110.798 30.0339 111.298 31.3239 112.302 32.3099C113.306 33.2959 114.535 33.7869 116.002 33.7869C117.608 33.7869 118.979 33.1389 120.102 31.8449L121.297 33.0399C120.671 33.7871 119.885 34.3841 118.997 34.7869C118.055 35.22 117.029 35.4393 115.993 35.4289L116.004 35.4279ZM124.56 35.1319H122.84V21.7549H124.56V35.1319ZM127.363 27.0719C128.248 26.1449 129.363 25.6789 130.745 25.6789C132.127 25.6789 133.242 26.1439 134.127 27.0719C135.012 27.9999 135.454 29.1719 135.454 30.5569C135.454 31.9419 135.014 33.1139 134.127 34.0419C133.24 34.9699 132.127 35.4349 130.745 35.4349C129.363 35.4349 128.248 34.9699 127.363 34.0419C126.478 33.1139 126.036 31.9419 126.036 30.5569C126.036 29.1719 126.476 27.9999 127.363 27.0719ZM128.643 32.9549C129.243 33.5579 129.937 33.8609 130.743 33.8609C131.549 33.8609 132.243 33.5579 132.843 32.9549C133.443 32.3519 133.731 31.5499 133.731 30.5549C133.731 29.5599 133.434 28.7569 132.843 28.1549C132.252 27.5529 131.549 27.2489 130.743 27.2489C129.937 27.2489 129.243 27.5519 128.643 28.1549C128.043 28.7579 127.755 29.5599 127.755 30.5549C127.755 31.5499 128.052 32.3529 128.643 32.9549ZM144.963 35.1319H143.318V33.8619H143.243C142.983 34.2969 142.583 34.6689 142.048 34.9619C141.513 35.2549 140.948 35.4219 140.348 35.4219C139.201 35.4219 138.334 35.0739 137.743 34.3749C137.152 33.6759 136.855 32.7419 136.855 31.5719V25.9659H138.575V31.2899C138.575 32.9979 139.328 33.8499 140.835 33.8499C141.172 33.857 141.506 33.7827 141.809 33.6334C142.111 33.484 142.373 33.264 142.573 32.9919C143.018 32.4281 143.255 31.7287 143.245 31.0109V25.9659H144.965V35.1229L144.963 35.1319ZM150.791 35.4289C149.608 35.4289 148.585 34.9609 147.727 34.0269C146.869 33.0929 146.439 31.9349 146.439 30.5509C146.439 29.1669 146.869 28.0089 147.727 27.0749C148.585 26.1409 149.609 25.6729 150.791 25.6729C151.487 25.6729 152.115 25.8229 152.671 26.1199C153.227 26.4169 153.641 26.7919 153.914 27.2419H153.989L153.914 25.9719V21.7519H155.634V35.1319H153.989V33.8619H153.914C153.641 34.3089 153.227 34.6839 152.671 34.9839C152.116 35.2779 151.488 35.4289 150.791 35.4289ZM151.071 33.8589C151.459 33.8641 151.844 33.7869 152.2 33.6323C152.556 33.4776 152.875 33.2491 153.136 32.9619C153.703 32.3649 153.986 31.5599 153.986 30.5619C153.986 29.5639 153.704 28.7489 153.136 28.1619C152.875 27.8746 152.556 27.6461 152.2 27.4915C151.844 27.3368 151.459 27.2596 151.071 27.2649C150.273 27.2649 149.588 27.5679 149.015 28.1709C148.442 28.7739 148.157 29.5759 148.157 30.5709C148.157 31.5659 148.442 32.3689 149.015 32.9709C149.274 33.2591 149.591 33.489 149.945 33.6452C150.3 33.8014 150.684 33.8804 151.071 33.8769V33.8589Z" fill="url(#paint4_linear_1915_8658)"/>
<defs>
<linearGradient id="paint0_linear_1915_8658" x1="16.1169" y1="15.6345" x2="16.1169" y2="25.9525" gradientUnits="userSpaceOnUse">
<stop stop-color="#42389E"/>
<stop offset="1" stop-color="#0F1026"/>
</linearGradient>
<linearGradient id="paint1_linear_1915_8658" x1="26.7749" y1="19.1675" x2="26.7749" y2="44.3565" gradientUnits="userSpaceOnUse">
<stop stop-color="#42389E"/>
<stop offset="1" stop-color="#0F1026"/>
</linearGradient>
<linearGradient id="paint2_linear_1915_8658" x1="11.2918" y1="37.8044" x2="11.2918" y2="44.3655" gradientUnits="userSpaceOnUse">
<stop stop-color="#42389E"/>
<stop offset="1" stop-color="#0F1026"/>
</linearGradient>
<linearGradient id="paint3_linear_1915_8658" x1="9.43121" y1="24.1765" x2="9.43121" y2="42.3105" gradientUnits="userSpaceOnUse">
<stop stop-color="#42389E"/>
<stop offset="1" stop-color="#0F1026"/>
</linearGradient>
<linearGradient id="paint4_linear_1915_8658" x1="99.8599" y1="20.1111" x2="99.8599" y2="39.8889" gradientUnits="userSpaceOnUse">
<stop stop-color="#42389E"/>
<stop offset="1" stop-color="#0F1026"/>
</linearGradient>
</defs>
</svg>
