<svg width="121" height="60" viewBox="0 0 121 60" fill="none" xmlns="http://www.w3.org/2000/svg">
<path d="M21.458 14.33V16.474H36.708V14.33H21.458ZM38.87 14.33V16.474H60.604C60.604 16.474 58.384 14.33 55.444 14.33H38.87ZM64.867 14.33V16.474H78.014L77.234 14.33H64.867ZM87.442 14.33L86.662 16.474H99.692V14.33H87.442ZM21.458 18.5V20.644H36.708V18.5H21.458ZM38.87 18.503V20.643H63.124C63.124 20.643 62.841 18.993 62.347 18.503H38.87ZM64.867 18.503V20.643H79.467L78.745 18.503H64.867ZM85.881 18.503L85.159 20.643H99.691V18.503H85.881ZM25.841 22.67V24.817H32.446V22.67H25.841ZM43.253 22.67V24.817H49.858V22.67H43.253ZM56.283 22.67V24.817H62.888C62.888 24.817 63.308 23.683 63.308 22.67H56.283ZM69.251 22.67V24.817H80.951L80.171 22.67H69.251ZM84.444 22.67L83.66 24.817H95.428V22.67H84.444ZM25.842 26.843V28.987H32.447V26.843H25.842ZM43.254 26.843V28.987H60.124C60.124 28.987 61.534 27.887 61.984 26.843H43.254ZM69.251 26.843V28.987H75.856V27.793L76.276 28.987H88.376L88.826 27.793V28.987H95.431V26.843H83.031L82.373 28.659L81.713 26.843H69.251ZM25.841 31.013V33.157H32.446V31.013H25.841ZM43.253 31.013V33.157H61.983C61.533 32.117 60.123 31.013 60.123 31.013H43.253ZM69.25 31.013V33.157H75.855V31.013H69.25ZM77.055 31.013L77.855 33.157H86.927L87.687 31.013H77.055ZM88.823 31.013V33.157H95.428V31.013H88.823ZM25.843 35.183V37.327H32.448V35.183H25.843ZM43.255 35.183V37.327H49.86V35.183H43.255ZM56.285 35.183V37.327H63.309C63.309 36.315 62.889 35.183 62.889 35.183H56.285ZM69.253 35.183V37.327H75.858V35.183H69.253ZM78.557 35.183L79.331 37.327H85.411L86.191 35.183H78.557ZM88.825 35.183V37.327H95.43V35.183H88.825ZM21.58 39.353V41.5H36.83V39.353H21.58ZM38.873 39.353V41.5H62.351C62.845 41.008 63.128 39.353 63.128 39.353H38.873ZM64.989 39.353V41.5H75.854V39.353H64.989ZM80.059 39.353L80.855 41.5H83.949L84.696 39.353H80.059ZM88.825 39.353V41.5H99.813V39.353H88.825ZM21.58 43.526V45.67H36.83V43.526H21.58ZM38.873 43.526V45.666H55.444C58.384 45.666 60.604 43.526 60.604 43.526H38.873ZM64.989 43.526V45.67H75.854V43.526H64.989ZM81.569 43.526L82.334 45.664L82.466 45.667L83.243 43.527L81.569 43.526ZM88.826 43.526V45.67H99.814V43.526H88.826Z" fill="url(#paint0_linear_1915_8682)"/>
<defs>
<linearGradient id="paint0_linear_1915_8682" x1="60.636" y1="14.33" x2="60.636" y2="45.67" gradientUnits="userSpaceOnUse">
<stop stop-color="#42389E"/>
<stop offset="1" stop-color="#0F1026"/>
</linearGradient>
</defs>
</svg>
