<svg width="121" height="60" viewBox="0 0 121 60" fill="none" xmlns="http://www.w3.org/2000/svg">
<path d="M61.4734 29.3987H59.6813V22.402C59.6721 21.7098 59.6982 21.0174 59.7591 20.3277C59.7011 20.6732 59.5958 21.0091 59.4463 21.3259L56.1639 29.4637H54.9142L51.6266 21.4072L51.3137 20.3222C51.3916 20.7833 51.3916 21.4743 51.3916 22.4742V29.48H49.6719V18.6423H52.2506L55.144 25.8651L55.6124 27.0951C55.7311 26.6473 55.8878 26.2106 56.0808 25.7895L59.0502 18.5668H61.5515L61.4734 29.3987ZM64.8336 20.024C64.6889 20.0316 64.5444 20.0081 64.4096 19.9551C64.2748 19.9021 64.1529 19.8207 64.0523 19.7166C63.8425 19.5503 63.7259 19.2928 63.7394 19.0258C63.7096 18.7555 63.8294 18.4907 64.0523 18.3349C64.2752 18.1551 64.5479 18.0478 64.8336 18.0276C64.9782 18.0199 65.1228 18.0434 65.2576 18.0964C65.3924 18.1495 65.5142 18.2308 65.6149 18.3349C65.8247 18.5012 65.9413 18.7587 65.9278 19.0258C65.9575 19.2961 65.8378 19.5608 65.6149 19.7166C65.5142 19.8207 65.3924 19.9021 65.2576 19.9551C65.1228 20.0081 64.9782 20.0316 64.8336 20.024ZM65.6925 29.3987H63.8949V21.6388H65.6925V29.3987ZM73.7396 29.0933C73.1138 29.4768 72.3328 29.6362 71.4736 29.6362C70.3018 29.6362 69.3631 29.2528 68.6597 28.5601C67.9563 27.8674 67.5747 26.9471 67.5747 25.7931C67.5747 24.4875 67.9652 23.4875 68.7465 22.7188C69.5278 21.9501 70.5441 21.5667 71.8715 21.5667C72.516 21.5668 73.1539 21.6972 73.7467 21.9501V23.5596C73.2473 23.1884 72.6486 22.9743 72.027 22.9449C71.2482 22.9449 70.6201 23.1746 70.1517 23.7133C69.6707 24.2616 69.4189 24.9739 69.4483 25.7027C69.4483 26.4711 69.6833 27.1617 70.1515 27.6233C70.6344 28.0846 71.2817 28.3333 71.9491 28.3141C72.6115 28.3054 73.249 28.0603 73.7467 27.6233V29.0938L73.7396 29.0933ZM80.0693 23.3315C79.7859 23.1654 79.4604 23.0857 79.1302 23.1018C78.5873 23.1018 78.191 23.3315 77.801 23.7926C77.4109 24.2537 77.2581 24.8776 77.2581 25.7132V29.4026H75.4605V21.6388H77.2581V23.2518C77.4058 22.7584 77.6743 22.3097 78.0392 21.9462C78.3809 21.6377 78.8285 21.4725 79.2889 21.4851C79.5321 21.4816 79.7728 21.5342 79.9923 21.6388L80.0693 23.3315ZM84.8336 29.6355C83.5839 29.6355 82.6454 29.2521 81.9402 28.5594C81.2349 27.8668 80.8552 26.8685 80.8552 25.7192C80.8552 24.4136 81.2457 23.4135 82.027 22.6448C82.8083 21.8761 83.8246 21.5598 85.0741 21.5598C86.3236 21.5598 87.2622 21.9432 87.9675 22.6448C88.6727 23.3464 88.9749 24.3302 88.9749 25.6358C89.0078 26.7364 88.6198 27.8081 87.8898 28.6323C87.0164 29.308 85.9376 29.663 84.8336 29.6401V29.6355ZM84.9115 22.8739C84.2086 22.8739 83.6619 23.1041 83.2714 23.5647C82.8809 24.0258 82.6457 24.7168 82.6457 25.554C82.6457 26.3912 82.8807 27.0131 83.2714 27.4746C83.6622 27.9362 84.2106 28.1654 84.9115 28.1654C85.6124 28.1654 86.1612 27.9357 86.5515 27.4746C86.9418 27.0135 87.0943 26.3985 87.0943 25.4853C87.0943 24.6408 86.9386 23.9506 86.5515 23.496C86.3328 23.2894 86.075 23.1287 85.7934 23.0231C85.5117 22.9175 85.2118 22.8693 84.9112 22.8812L84.9115 22.8739ZM90.2264 29.1689V27.5518C90.9296 28.0129 91.6332 28.3203 92.4145 28.3203C93.5079 28.3203 94.0546 28.0129 94.0546 27.3981C94.0384 27.2346 93.9852 27.0769 93.8988 26.937C93.8058 26.7946 93.6686 26.6867 93.5083 26.6296C93.3335 26.5394 93.1521 26.4624 92.9654 26.3999L92.2622 26.1702C91.9696 26.057 91.6829 25.9291 91.4033 25.7867C91.1813 25.6521 90.9718 25.4978 90.7775 25.3256C90.6037 25.152 90.4703 24.942 90.387 24.7109C90.2904 24.4658 90.2377 24.2057 90.2314 23.9424C90.226 23.5953 90.3067 23.2524 90.4664 22.9442C90.6177 22.6422 90.8652 22.3991 91.1699 22.2534C91.4828 22.0236 91.7956 21.946 92.1862 21.7923C92.5709 21.7034 92.9634 21.6519 93.358 21.6386C94.0227 21.6156 94.6856 21.72 95.3111 21.946V23.4852C94.7592 23.1106 94.1026 22.9206 93.4359 22.9426C93.2243 22.9248 93.0113 22.9506 92.8101 23.0186C92.6544 23.0947 92.4972 23.0947 92.3417 23.1721C92.2027 23.2316 92.0911 23.3416 92.0288 23.4795C91.9661 23.597 91.939 23.7303 91.9509 23.8629C91.9384 24.0207 91.9651 24.1791 92.0286 24.324C92.0905 24.4621 92.2023 24.5719 92.3415 24.6314C92.5162 24.7216 92.6977 24.7986 92.8843 24.8611C93.1193 24.9372 93.2749 25.0146 93.5875 25.0909C93.8849 25.251 94.1983 25.3795 94.5225 25.4743C94.8354 25.5503 94.9909 25.7817 95.2257 25.9354C95.4001 26.1257 95.5569 26.3315 95.6941 26.5502C95.7904 26.8217 95.843 27.1067 95.8499 27.3947C95.8499 27.7781 95.772 28.1632 95.537 28.3929C95.3653 28.6807 95.1241 28.9208 94.8354 29.091C94.4861 29.2723 94.1233 29.4264 93.7504 29.5521C92.5673 29.8508 91.3165 29.7141 90.2257 29.1669L90.2264 29.1689ZM101.091 29.6355C99.8414 29.6355 98.9029 29.2521 98.1977 28.5594C97.4924 27.8668 97.1127 26.8685 97.1127 25.7192C97.1127 24.4136 97.5032 23.4135 98.2845 22.6448C99.0658 21.8761 100.082 21.5598 101.332 21.5598C102.581 21.5598 103.52 21.9432 104.225 22.6448C104.93 23.3464 105.241 24.3357 105.241 25.6413C105.274 26.7419 104.886 27.8136 104.156 28.6378C103.271 29.3036 102.189 29.6555 101.082 29.6378L101.091 29.6355ZM101.169 22.8739C100.466 22.8739 99.9194 23.1041 99.5289 23.5647C99.1384 24.0258 98.9032 24.7168 98.9032 25.554C98.9032 26.3912 99.1382 27.0131 99.5289 27.4746C99.9197 27.9362 100.468 28.1654 101.169 28.1654C101.87 28.1654 102.419 27.9357 102.809 27.4746C103.199 27.0135 103.352 26.3985 103.352 25.4853C103.352 24.6408 103.196 23.9506 102.809 23.496C102.591 23.2867 102.333 23.1233 102.051 23.0155C101.768 22.9077 101.467 22.8576 101.165 22.8684L101.169 22.8739ZM111.399 19.4106C111.14 19.2542 110.842 19.1745 110.54 19.1808C109.681 19.1808 109.211 19.6419 109.211 20.6399V21.7165H111.009V23.0999H109.211V29.4818H107.421V23.0981H106.092V21.7146H107.421V20.4846C107.421 19.6401 107.656 19.0255 108.2 18.564C108.627 18.2361 109.127 18.0156 109.657 17.9211C110.187 17.8267 110.732 17.861 111.247 18.0211V19.4046H111.397L111.399 19.4106ZM116.561 29.3224C116.248 29.4756 115.779 29.5521 115.154 29.5521C113.592 29.5521 112.888 28.8613 112.888 27.4002V23.0223H111.559V21.6388H112.888V19.8705L114.685 19.4094V21.7151H116.561V23.0986H114.685V26.9467C114.66 27.2955 114.742 27.6438 114.92 27.9449C115.076 28.1746 115.389 28.2523 115.779 28.2523C116.058 28.2562 116.33 28.1727 116.558 28.0136V29.3192L116.561 29.3224ZM60.625 45.3561H58.5923L57.576 42.591H53.1998L52.2606 45.3579H50.2298L54.3711 34.5237H56.3982L60.625 45.3561ZM57.1076 41.1301L55.5455 36.828C55.4768 36.6018 55.4248 36.3709 55.39 36.1372C55.3551 36.3709 55.3031 36.6018 55.2344 36.828L53.7497 41.1301H57.1076ZM67.7448 38.3592L63.5241 43.9653H67.7432V45.3488H61.016V44.6708L65.3941 38.9797H61.488V37.5962H67.8175V38.3594L67.7448 38.3592ZM76.174 45.3561H74.3764V44.1284C74.1438 44.5638 73.793 44.9247 73.3643 45.1695C72.9356 45.4142 72.4464 45.5329 71.9532 45.5119C70.078 45.5119 69.1393 44.4358 69.1393 42.208V37.5958H70.9369V42.0518C70.9369 43.4347 71.4836 44.1261 72.5769 44.1261C72.8244 44.1361 73.0712 44.0928 73.3005 43.9992C73.5298 43.9056 73.7364 43.7638 73.9061 43.5835C74.2573 43.1481 74.4488 42.6056 74.4488 42.0463V37.5958H76.2445L76.174 45.3561ZM83.0511 39.2869C82.7677 39.1208 82.4423 39.0411 82.112 39.0571C81.5691 39.0571 81.1729 39.2869 80.7828 39.748C80.3927 40.2091 80.2399 40.833 80.2399 41.6686V45.3577H78.4423V37.5958H80.2399V39.2088C80.3877 38.7154 80.6561 38.2667 81.021 37.9032C81.3595 37.5976 81.7998 37.4327 82.2579 37.4421C82.501 37.4386 82.7417 37.4912 82.9613 37.5958L83.0511 39.2869ZM91.0208 41.976H85.63C85.63 42.6668 85.865 43.2816 86.3332 43.6668C86.7237 44.0503 87.3495 44.2816 88.1308 44.2816C88.9791 44.3004 89.8084 44.0293 90.4818 43.5131V44.8966C89.773 45.3608 88.8326 45.5929 87.6608 45.5929C87.1549 45.6099 86.651 45.5223 86.1805 45.3356C85.71 45.1489 85.2831 44.8672 84.9266 44.5079C84.2234 43.8171 83.9103 42.817 83.9103 41.5114C83.8733 40.433 84.2632 39.3835 84.9953 38.5908C85.3419 38.2139 85.7653 37.9159 86.237 37.7169C86.7088 37.5178 87.2177 37.4224 87.7295 37.4371C88.8145 37.4371 89.6047 37.7444 90.2308 38.4353C90.8568 39.1261 91.0897 40.0483 91.0897 41.2755L91.0208 41.976ZM89.301 40.746C89.301 40.1312 89.1453 39.5938 88.8326 39.2869C88.6833 39.1026 88.4917 38.957 88.2742 38.8625C88.0566 38.768 87.8195 38.7274 87.5829 38.744C87.3354 38.734 87.0886 38.7773 86.8593 38.8709C86.63 38.9645 86.4235 39.1063 86.2537 39.2867C85.8632 39.6701 85.7108 40.1312 85.6279 40.7457L89.301 40.746Z" fill="url(#paint0_linear_1915_8669)"/>
<path fill-rule="evenodd" clip-rule="evenodd" d="M29.1653 19.0379L23.3382 30.7738L33.5998 42.6644L14.5586 44.826L44.1051 45.1352L29.1653 19.0379ZM28.0162 14.405L14.6381 25.6007L4.70703 42.3559L13.1607 41.5084L28.0162 14.405Z" fill="url(#paint1_linear_1915_8669)"/>
<defs>
<linearGradient id="paint0_linear_1915_8669" x1="83.1162" y1="17.869" x2="83.1162" y2="45.595" gradientUnits="userSpaceOnUse">
<stop stop-color="#42389E"/>
<stop offset="1" stop-color="#0F1026"/>
</linearGradient>
<linearGradient id="paint1_linear_1915_8669" x1="24.406" y1="14.405" x2="24.406" y2="45.1352" gradientUnits="userSpaceOnUse">
<stop stop-color="#42389E"/>
<stop offset="1" stop-color="#0F1026"/>
</linearGradient>
</defs>
</svg>
