<svg xmlns="http://www.w3.org/2000/svg" width="120" height="60" viewBox="0 0 120 60"><rect width="100%" height="100%" fill="#DDDDDD"/><path fill="#999999" d="M29.305 35.11h2.47v1.76h-7.6v-1.76h2.78V27.1q0-.47.03-.97l-1.98 1.65q-.17.13-.34.16-.16.04-.31.01t-.26-.1-.17-.16l-.74-1.01 4.19-3.57h1.93zm9.45-.43h3.52q.38 0 .61.22.22.21.22.56v1.41h-9.42v-.78q0-.24.09-.5.1-.26.32-.47l4.17-4.18q.53-.53.94-1.01.41-.49.69-.96.27-.48.42-.97t.15-1.03q0-.49-.14-.87-.15-.37-.41-.63t-.63-.38q-.36-.13-.82-.13-.42 0-.77.12-.36.11-.63.33-.28.21-.47.5-.19.28-.28.62-.16.44-.42.58-.26.15-.74.07l-1.24-.22q.15-.99.55-1.73.41-.75 1.02-1.25.62-.5 1.41-.75t1.71-.25q.95 0 1.73.28.79.28 1.35.79.56.52.88 1.24.31.72.31 1.61 0 .76-.22 1.4-.23.65-.6 1.24-.38.58-.88 1.14-.5.55-1.05 1.12l-3.1 3.16q.45-.13.89-.2.44-.08.84-.08M54.525 30q0 1.8-.39 3.12-.38 1.33-1.06 2.19-.68.87-1.61 1.29-.92.42-2 .42-1.07 0-1.99-.42-.91-.42-1.59-1.29-.67-.86-1.05-2.19-.38-1.32-.38-3.12t.38-3.12 1.05-2.19q.68-.86 1.59-1.29.92-.42 1.99-.42 1.08 0 2 .42.93.43 1.61 1.29.68.87 1.06 2.19.39 1.32.39 3.12m-2.42 0q0-1.49-.22-2.47t-.59-1.56q-.36-.58-.84-.81-.47-.23-.99-.23-.5 0-.97.23t-.83.81-.58 1.56q-.21.98-.21 2.47t.21 2.47q.22.98.58 1.56t.83.81.97.23q.52 0 .99-.23.48-.23.84-.81.37-.58.59-1.56t.22-2.47m17.5 3.73-1.24 1.22-3.22-3.22-3.25 3.24-1.24-1.23 3.24-3.25-3.09-3.1 1.23-1.24 3.1 3.1 3.08-3.08 1.25 1.24-3.09 3.09zm14.68-10.6-4.07 4.99-.48.59q.4-.2.86-.31t.99-.11q.78 0 1.52.26.74.25 1.3.77t.9 1.29.34 1.8q0 .95-.35 1.8-.35.84-.99 1.46-.64.63-1.53.99-.9.36-1.98.36-1.11 0-1.98-.35t-1.49-.98-.95-1.52-.33-1.97q0-.97.4-1.99.39-1.03 1.22-2.13l3.28-4.4q.17-.22.5-.39.32-.16.75-.16zm-3.54 11.97q.56 0 1.03-.19t.81-.53q.33-.34.52-.8t.19-1q0-.59-.18-1.06t-.51-.8-.8-.5q-.46-.17-1.02-.17t-1.02.19-.78.53q-.32.33-.5.79-.18.47-.18 1 0 .57.15 1.04.16.47.47.8t.76.52q.46.18 1.06.18m16.07-5.1q0 1.8-.38 3.12-.39 1.33-1.07 2.19-.68.87-1.6 1.29-.93.42-2 .42-1.08 0-1.99-.42-.92-.42-1.59-1.29-.68-.86-1.06-2.19-.38-1.32-.38-3.12t.38-3.12 1.06-2.19q.67-.86 1.59-1.29.91-.42 1.99-.42 1.07 0 2 .42.92.43 1.6 1.29.68.87 1.07 2.19.38 1.32.38 3.12m-2.42 0q0-1.49-.22-2.47t-.58-1.56q-.37-.58-.84-.81-.48-.23-.99-.23t-.98.23-.83.81-.57 1.56q-.22.98-.22 2.47t.22 2.47q.21.98.57 1.56t.83.81.98.23.99-.23q.47-.23.84-.81.36-.58.58-1.56t.22-2.47"/></svg>