<svg width="211" height="61" viewBox="0 0 211 61" fill="none" xmlns="http://www.w3.org/2000/svg">
<path d="M15 5V48.8092M33 55.8V32.0312V14.3211H5H59.5" stroke="#FEFEFF" stroke-width="9" stroke-linecap="round"/>
<path d="M62.2094 39.4V21.568H66.0014V39.4H62.2094ZM70.1572 39.4V26.044H73.4812L73.5412 27.544C73.8452 27.288 74.2332 27.032 74.7052 26.776C75.1772 26.512 75.6972 26.292 76.2652 26.116C76.8412 25.94 77.4212 25.848 78.0052 25.84C79.3972 25.808 80.4212 26.18 81.0772 26.956C81.7332 27.724 82.0612 29.076 82.0612 31.012V39.4H78.3892V31.528C78.3892 30.488 78.2532 29.76 77.9812 29.344C77.7092 28.928 77.1772 28.736 76.3852 28.768C76.1452 28.776 75.8732 28.82 75.5692 28.9C75.2732 28.972 74.9692 29.084 74.6572 29.236C74.3532 29.38 74.0692 29.56 73.8052 29.776V39.4H70.1572ZM89.6933 39.592C88.8773 39.592 88.2013 39.46 87.6653 39.196C87.1373 38.924 86.7413 38.496 86.4773 37.912C86.2213 37.328 86.0933 36.556 86.0933 35.596V28.54H84.4733V26.584C85.0653 26.416 85.5373 26.256 85.8893 26.104C86.2493 25.952 86.5093 25.688 86.6693 25.312C86.7493 25.128 86.8333 24.912 86.9213 24.664C87.0173 24.416 87.1173 24.148 87.2213 23.86C87.3253 23.572 87.4333 23.28 87.5453 22.984H89.7533V26.032H93.3413V28.54H89.7533V34.048C89.7533 34.896 89.7973 35.516 89.8853 35.908C89.9733 36.292 90.1253 36.54 90.3413 36.652C90.5573 36.756 90.8693 36.808 91.2773 36.808C91.4853 36.808 91.7253 36.784 91.9973 36.736C92.2693 36.68 92.5293 36.612 92.7773 36.532C93.0253 36.452 93.2173 36.368 93.3533 36.28L93.8333 38.332C93.6173 38.524 93.2933 38.72 92.8613 38.92C92.4293 39.112 91.9373 39.272 91.3853 39.4C90.8333 39.528 90.2693 39.592 89.6933 39.592ZM101.893 39.592C99.8374 39.592 98.2614 38.98 97.1654 37.756C96.0694 36.532 95.5214 34.84 95.5214 32.68C95.5214 31.384 95.7694 30.224 96.2654 29.2C96.7694 28.176 97.4974 27.368 98.4494 26.776C99.4014 26.176 100.565 25.872 101.941 25.864C102.637 25.856 103.301 25.944 103.933 26.128C104.565 26.312 105.129 26.612 105.625 27.028C106.121 27.436 106.517 27.98 106.813 28.66C107.117 29.332 107.273 30.156 107.281 31.132C107.281 31.62 107.273 32.072 107.257 32.488C107.241 32.904 107.205 33.26 107.149 33.556H97.4894L97.7294 31.576H103.873C103.913 30.928 103.877 30.36 103.765 29.872C103.661 29.376 103.453 28.992 103.141 28.72C102.829 28.44 102.389 28.3 101.821 28.3C101.269 28.3 100.785 28.452 100.369 28.756C99.9614 29.06 99.6454 29.584 99.4214 30.328C99.2054 31.064 99.1134 32.08 99.1454 33.376C99.1774 34.248 99.3454 34.948 99.6494 35.476C99.9614 35.996 100.381 36.372 100.909 36.604C101.445 36.828 102.065 36.94 102.769 36.94C103.153 36.94 103.573 36.908 104.029 36.844C104.485 36.78 104.917 36.696 105.325 36.592C105.733 36.48 106.045 36.368 106.261 36.256L106.873 38.248C106.577 38.488 106.169 38.712 105.649 38.92C105.137 39.12 104.553 39.28 103.897 39.4C103.249 39.528 102.581 39.592 101.893 39.592ZM110.188 39.4V19.9H113.86V39.4H110.188ZM117.547 39.4V19.9H121.219V39.4H117.547ZM125.003 39.4V26.044H128.663V39.4H125.003ZM126.647 24.112C126.055 24.112 125.555 23.928 125.147 23.56C124.739 23.192 124.535 22.712 124.535 22.12C124.535 21.72 124.643 21.356 124.859 21.028C125.083 20.692 125.371 20.424 125.723 20.224C126.083 20.024 126.467 19.924 126.875 19.924C127.531 19.924 128.043 20.112 128.411 20.488C128.787 20.856 128.975 21.332 128.975 21.916C128.975 22.524 128.743 23.044 128.279 23.476C127.823 23.9 127.279 24.112 126.647 24.112ZM136.161 39.4V24.448H131.085V21.568H145.017V24.448H139.941V39.4H136.161ZM151.307 39.592C150.139 39.592 149.147 39.404 148.331 39.028C147.515 38.644 146.855 38.12 146.351 37.456C145.855 36.792 145.495 36.032 145.271 35.176C145.047 34.312 144.939 33.4 144.947 32.44C144.971 31.016 145.267 29.816 145.835 28.84C146.411 27.864 147.191 27.124 148.175 26.62C149.167 26.116 150.291 25.864 151.547 25.864C153.115 25.864 154.367 26.192 155.303 26.848C156.239 27.504 156.911 28.376 157.319 29.464C157.727 30.544 157.919 31.72 157.895 32.992C157.879 34.424 157.587 35.632 157.019 36.616C156.451 37.592 155.675 38.332 154.691 38.836C153.707 39.34 152.579 39.592 151.307 39.592ZM151.403 37.036C152.355 37.044 153.047 36.688 153.479 35.968C153.911 35.248 154.127 34.204 154.127 32.836C154.127 32.028 154.039 31.292 153.863 30.628C153.687 29.964 153.403 29.432 153.011 29.032C152.627 28.632 152.115 28.428 151.475 28.42C150.515 28.412 149.819 28.764 149.387 29.476C148.955 30.18 148.739 31.2 148.739 32.536C148.739 33.352 148.827 34.104 149.003 34.792C149.179 35.472 149.459 36.016 149.843 36.424C150.235 36.832 150.755 37.036 151.403 37.036ZM165.568 45.448C163.464 45.432 161.896 45.076 160.864 44.38C159.84 43.692 159.328 42.712 159.328 41.44C159.328 40.968 159.44 40.54 159.664 40.156C159.888 39.78 160.192 39.46 160.576 39.196C160.968 38.924 161.412 38.716 161.908 38.572L163.996 38.764C163.86 38.876 163.7 39.016 163.516 39.184C163.34 39.352 163.184 39.568 163.048 39.832C162.912 40.096 162.844 40.432 162.844 40.84C162.844 41.296 162.928 41.712 163.096 42.088C163.272 42.464 163.568 42.764 163.984 42.988C164.408 43.212 164.996 43.324 165.748 43.324C166.372 43.324 166.94 43.252 167.452 43.108C167.972 42.972 168.38 42.756 168.676 42.46C168.98 42.172 169.132 41.796 169.132 41.332C169.132 40.932 169.06 40.58 168.916 40.276C168.78 39.98 168.504 39.748 168.088 39.58C167.68 39.412 167.076 39.328 166.276 39.328H164.056C163.752 39.328 163.484 39.308 163.252 39.268C163.02 39.22 162.792 39.172 162.568 39.124C162.416 39.084 162.308 39.044 162.244 39.004C162.188 38.956 162.076 38.916 161.908 38.884C161.308 38.716 160.88 38.472 160.624 38.152C160.368 37.824 160.24 37.42 160.24 36.94C160.248 36.628 160.316 36.304 160.444 35.968C160.572 35.624 160.792 35.296 161.104 34.984C161.416 34.664 161.84 34.392 162.376 34.168L164.44 34.54C164.12 34.66 163.868 34.852 163.684 35.116C163.508 35.372 163.42 35.628 163.42 35.884C163.42 36.276 163.54 36.548 163.78 36.7C164.028 36.844 164.452 36.916 165.052 36.916H167.464C168.496 36.916 169.348 37.016 170.02 37.216C170.692 37.416 171.22 37.692 171.604 38.044C171.988 38.388 172.256 38.78 172.408 39.22C172.568 39.652 172.648 40.104 172.648 40.576C172.648 41.376 172.456 42.08 172.072 42.688C171.688 43.304 171.164 43.816 170.5 44.224C169.836 44.632 169.08 44.94 168.232 45.148C167.384 45.356 166.496 45.456 165.568 45.448ZM165.376 34.876C164.272 34.876 163.292 34.7 162.436 34.348C161.588 33.996 160.924 33.488 160.444 32.824C159.964 32.16 159.724 31.368 159.724 30.448C159.724 29.448 159.96 28.608 160.432 27.928C160.904 27.248 161.564 26.736 162.412 26.392C163.268 26.048 164.264 25.872 165.4 25.864C166.544 25.856 167.548 26.02 168.412 26.356C169.284 26.692 169.96 27.196 170.44 27.868C170.928 28.532 171.172 29.356 171.172 30.34C171.172 31.316 170.948 32.144 170.5 32.824C170.052 33.496 169.396 34.008 168.532 34.36C167.668 34.704 166.616 34.876 165.376 34.876ZM165.424 32.824C166.128 32.824 166.692 32.664 167.116 32.344C167.548 32.016 167.764 31.372 167.764 30.412C167.764 29.636 167.576 29.052 167.2 28.66C166.832 28.26 166.268 28.06 165.508 28.06C165.06 28.06 164.668 28.128 164.332 28.264C163.996 28.392 163.732 28.624 163.54 28.96C163.356 29.296 163.264 29.768 163.264 30.376C163.264 31.04 163.428 31.616 163.756 32.104C164.084 32.584 164.64 32.824 165.424 32.824ZM169.6 28.636L169.024 27.124C169.184 26.908 169.508 26.668 169.996 26.404C170.484 26.132 171.056 25.996 171.712 25.996H173.272V28.636H169.6ZM180.802 45.448C178.698 45.432 177.13 45.076 176.098 44.38C175.074 43.692 174.562 42.712 174.562 41.44C174.562 40.968 174.674 40.54 174.898 40.156C175.122 39.78 175.426 39.46 175.81 39.196C176.202 38.924 176.646 38.716 177.142 38.572L179.23 38.764C179.094 38.876 178.934 39.016 178.75 39.184C178.574 39.352 178.418 39.568 178.282 39.832C178.146 40.096 178.078 40.432 178.078 40.84C178.078 41.296 178.162 41.712 178.33 42.088C178.506 42.464 178.802 42.764 179.218 42.988C179.642 43.212 180.23 43.324 180.982 43.324C181.606 43.324 182.174 43.252 182.686 43.108C183.206 42.972 183.614 42.756 183.91 42.46C184.214 42.172 184.366 41.796 184.366 41.332C184.366 40.932 184.294 40.58 184.15 40.276C184.014 39.98 183.738 39.748 183.322 39.58C182.914 39.412 182.31 39.328 181.51 39.328H179.29C178.986 39.328 178.718 39.308 178.486 39.268C178.254 39.22 178.026 39.172 177.802 39.124C177.65 39.084 177.542 39.044 177.478 39.004C177.422 38.956 177.31 38.916 177.142 38.884C176.542 38.716 176.114 38.472 175.858 38.152C175.602 37.824 175.474 37.42 175.474 36.94C175.482 36.628 175.55 36.304 175.678 35.968C175.806 35.624 176.026 35.296 176.338 34.984C176.65 34.664 177.074 34.392 177.61 34.168L179.674 34.54C179.354 34.66 179.102 34.852 178.918 35.116C178.742 35.372 178.654 35.628 178.654 35.884C178.654 36.276 178.774 36.548 179.014 36.7C179.262 36.844 179.686 36.916 180.286 36.916H182.698C183.73 36.916 184.582 37.016 185.254 37.216C185.926 37.416 186.454 37.692 186.838 38.044C187.222 38.388 187.49 38.78 187.642 39.22C187.802 39.652 187.882 40.104 187.882 40.576C187.882 41.376 187.69 42.08 187.306 42.688C186.922 43.304 186.398 43.816 185.734 44.224C185.07 44.632 184.314 44.94 183.466 45.148C182.618 45.356 181.73 45.456 180.802 45.448ZM180.61 34.876C179.506 34.876 178.526 34.7 177.67 34.348C176.822 33.996 176.158 33.488 175.678 32.824C175.198 32.16 174.958 31.368 174.958 30.448C174.958 29.448 175.194 28.608 175.666 27.928C176.138 27.248 176.798 26.736 177.646 26.392C178.502 26.048 179.498 25.872 180.634 25.864C181.778 25.856 182.782 26.02 183.646 26.356C184.518 26.692 185.194 27.196 185.674 27.868C186.162 28.532 186.406 29.356 186.406 30.34C186.406 31.316 186.182 32.144 185.734 32.824C185.286 33.496 184.63 34.008 183.766 34.36C182.902 34.704 181.85 34.876 180.61 34.876ZM180.658 32.824C181.362 32.824 181.926 32.664 182.35 32.344C182.782 32.016 182.998 31.372 182.998 30.412C182.998 29.636 182.81 29.052 182.434 28.66C182.066 28.26 181.502 28.06 180.742 28.06C180.294 28.06 179.902 28.128 179.566 28.264C179.23 28.392 178.966 28.624 178.774 28.96C178.59 29.296 178.498 29.768 178.498 30.376C178.498 31.04 178.662 31.616 178.99 32.104C179.318 32.584 179.874 32.824 180.658 32.824ZM184.834 28.636L184.258 27.124C184.418 26.908 184.742 26.668 185.23 26.404C185.718 26.132 186.29 25.996 186.946 25.996H188.506V28.636H184.834ZM190.649 39.4V19.9H194.321V39.4H190.649ZM203.612 39.592C201.556 39.592 199.98 38.98 198.884 37.756C197.788 36.532 197.24 34.84 197.24 32.68C197.24 31.384 197.488 30.224 197.984 29.2C198.488 28.176 199.216 27.368 200.168 26.776C201.12 26.176 202.284 25.872 203.66 25.864C204.356 25.856 205.02 25.944 205.652 26.128C206.284 26.312 206.848 26.612 207.344 27.028C207.84 27.436 208.236 27.98 208.532 28.66C208.836 29.332 208.992 30.156 209 31.132C209 31.62 208.992 32.072 208.976 32.488C208.96 32.904 208.924 33.26 208.868 33.556H199.208L199.448 31.576H205.592C205.632 30.928 205.596 30.36 205.484 29.872C205.38 29.376 205.172 28.992 204.86 28.72C204.548 28.44 204.108 28.3 203.54 28.3C202.988 28.3 202.504 28.452 202.088 28.756C201.68 29.06 201.364 29.584 201.14 30.328C200.924 31.064 200.832 32.08 200.864 33.376C200.896 34.248 201.064 34.948 201.368 35.476C201.68 35.996 202.1 36.372 202.628 36.604C203.164 36.828 203.784 36.94 204.488 36.94C204.872 36.94 205.292 36.908 205.748 36.844C206.204 36.78 206.636 36.696 207.044 36.592C207.452 36.48 207.764 36.368 207.98 36.256L208.592 38.248C208.296 38.488 207.888 38.712 207.368 38.92C206.856 39.12 206.272 39.28 205.616 39.4C204.968 39.528 204.3 39.592 203.612 39.592Z" fill="#FEFEFF"/>
</svg>
