<svg width="22" height="19" viewBox="0 0 22 19" fill="none" xmlns="http://www.w3.org/2000/svg">
<path d="M21.1072 4.50498C20.8637 4.74942 20.5742 4.94328 20.2555 5.07537C19.9368 5.20747 19.595 5.2752 19.25 5.27466C19.0714 5.27435 18.8934 5.25613 18.7184 5.22029L15.8525 10.5425C16.1968 10.8867 16.4386 11.3198 16.5508 11.7935C16.6631 12.2672 16.6414 12.7628 16.4882 13.2249C16.335 13.687 16.0564 14.0974 15.6833 14.4102C15.3103 14.723 14.8577 14.9259 14.376 14.9963C13.8943 15.0667 13.4025 15.0017 12.9556 14.8086C12.5087 14.6156 12.1243 14.302 11.8453 13.9031C11.5663 13.5041 11.4038 13.0354 11.3759 12.5494C11.348 12.0634 11.4557 11.5792 11.6872 11.1509L9.24406 8.70779C8.86185 8.91439 8.43447 9.02324 8 9.02466C7.82144 9.02441 7.64335 9.00619 7.46844 8.97029L4.6025 14.2915C4.96958 14.6587 5.21956 15.1264 5.32083 15.6356C5.42209 16.1448 5.37009 16.6726 5.17141 17.1522C4.97272 17.6318 4.63626 18.0418 4.20459 18.3302C3.77292 18.6187 3.26541 18.7726 2.74625 18.7726C2.22708 18.7726 1.71958 18.6187 1.2879 18.3302C0.85623 18.0418 0.519777 17.6318 0.321089 17.1522C0.122401 16.6726 0.0704021 16.1448 0.171667 15.6356C0.272931 15.1264 0.522911 14.6587 0.889998 14.2915C1.19773 13.9841 1.57704 13.7579 1.99384 13.6334C2.41064 13.5089 2.85185 13.4899 3.27781 13.5781L6.14375 8.25592C5.65227 7.76298 5.37628 7.09529 5.37628 6.3992C5.37628 5.70311 5.65227 5.03541 6.14375 4.54248C6.58958 4.09637 7.18112 3.8257 7.81016 3.77998C8.43919 3.73425 9.06366 3.91653 9.56932 4.29347C10.075 4.67041 10.428 5.21681 10.5639 5.8327C10.6997 6.44859 10.6092 7.0928 10.3091 7.64748L12.7522 10.0906C13.297 9.79758 13.9276 9.70564 14.5334 9.83092L17.3994 4.50873C17.1556 4.26497 16.9622 3.97558 16.8303 3.65708C16.6983 3.33859 16.6304 2.99722 16.6304 2.65248C16.6304 2.30774 16.6983 1.96637 16.8303 1.64787C16.9622 1.32937 17.1556 1.03998 17.3994 0.796228C17.8917 0.303919 18.5594 0.0273438 19.2556 0.0273438C19.9518 0.0273438 20.6196 0.303919 21.1119 0.796228C21.6042 1.28854 21.8808 1.95625 21.8808 2.65248C21.8808 3.34871 21.6042 4.01642 21.1119 4.50873L21.1072 4.50498Z" fill="url(#paint0_linear_1442_11203)"/>
<defs>
<linearGradient id="paint0_linear_1442_11203" x1="11.001" y1="0.0273437" x2="11.001" y2="18.7726" gradientUnits="userSpaceOnUse">
<stop stop-color="#42389E"/>
<stop offset="1" stop-color="#0F1026"/>
</linearGradient>
</defs>
</svg>
