<svg width="48" height="49" viewBox="0 0 48 49" fill="none" xmlns="http://www.w3.org/2000/svg">
<g clip-path="url(#clip0_1526_3436)">
<path d="M43.9 18.4102H43.36L35.04 30.4502L33.4 29.3102L40.94 18.4102H36.26C36.26 17.7472 35.9966 17.1113 35.5277 16.6425C35.0589 16.1736 34.423 15.9102 33.76 15.9102C33.0969 15.9102 32.4611 16.1736 31.9922 16.6425C31.5234 17.1113 31.26 17.7472 31.26 18.4102H30.4L27.9 26.4102L26 25.8102L28.3 18.4102H26.5C26.5 17.7472 26.2366 17.1113 25.7677 16.6425C25.2989 16.1736 24.663 15.9102 24 15.9102C23.3369 15.9102 22.701 16.1736 22.2322 16.6425C21.7634 17.1113 21.5 17.7472 21.5 18.4102H19.7L22 25.8102L20.1 26.4102L17.6 18.4102H16.76C16.76 17.7472 16.4966 17.1113 16.0277 16.6425C15.5589 16.1736 14.923 15.9102 14.26 15.9102C13.5969 15.9102 12.961 16.1736 12.4922 16.6425C12.0234 17.1113 11.76 17.7472 11.76 18.4102H7.01998L14.56 29.3102L12.92 30.4502L4.59998 18.4102H4.09998C4.59521 13.4765 6.90552 8.90266 10.5826 5.57616C14.2598 2.24966 19.0415 0.407715 24 0.407715C28.9585 0.407715 33.7402 2.24966 37.4173 5.57616C41.0944 8.90266 43.4047 13.4765 43.9 18.4102Z" fill="url(#paint0_linear_1526_3436)"/>
<path d="M22 31.2202L19.172 28.4102L11.936 35.6002L9.10797 38.4102L19.172 48.4102L22 45.6002L14.764 38.4102L22 31.2202ZM26.042 45.6002L28.87 48.4102L36.106 41.2202L38.934 38.4102L28.87 28.4102L26.042 31.2202L33.278 38.4102L26.042 45.6002Z" fill="url(#paint1_linear_1526_3436)"/>
</g>
<defs>
<linearGradient id="paint0_linear_1526_3436" x1="24" y1="0.407715" x2="24" y2="30.4502" gradientUnits="userSpaceOnUse">
<stop stop-color="#42389E"/>
<stop offset="1" stop-color="#0F1026"/>
</linearGradient>
<linearGradient id="paint1_linear_1526_3436" x1="24.021" y1="28.4102" x2="24.021" y2="48.4102" gradientUnits="userSpaceOnUse">
<stop stop-color="#42389E"/>
<stop offset="1" stop-color="#0F1026"/>
</linearGradient>
<clipPath id="clip0_1526_3436">
<rect width="48" height="48" fill="white" transform="translate(0 0.410156)"/>
</clipPath>
</defs>
</svg>
