<svg width="21" height="21" viewBox="0 0 21 21" fill="none" xmlns="http://www.w3.org/2000/svg">
<path d="M8.49999 1.3999C9.75099 1.3999 10.94 1.6699 12.009 2.1559C11.4931 2.61335 11.1506 3.23452 11.039 3.9149C9.75315 3.36929 8.32575 3.2524 6.96828 3.58155C5.61081 3.91071 4.39548 4.66839 3.50235 5.74235C2.60922 6.81631 2.0858 8.14941 2.00965 9.54415C1.9335 10.9389 2.30867 12.321 3.07957 13.4859C3.85047 14.6507 4.97608 15.5362 6.28965 16.0111C7.60322 16.4861 9.03486 16.5253 10.3725 16.123C11.71 15.7206 12.8824 14.898 13.7159 13.7771C14.5494 12.6563 14.9997 11.2967 15 9.8999L14.995 9.6309C15.531 10.1109 16.234 10.3959 16.986 10.3999C16.8865 12.1354 16.2549 13.7981 15.177 15.1619L18.829 18.8139C19.0111 19.0025 19.1119 19.2551 19.1097 19.5173C19.1074 19.7795 19.0022 20.0303 18.8168 20.2157C18.6314 20.4011 18.3806 20.5063 18.1184 20.5086C17.8562 20.5109 17.6036 20.4101 17.415 20.2279L13.763 16.5759C12.6985 17.4148 11.4488 17.987 10.1181 18.2448C8.7875 18.5025 7.41452 18.4383 6.11374 18.0576C4.81296 17.6768 3.6221 16.9905 2.64049 16.0559C1.65889 15.1213 0.915018 13.9655 0.470928 12.685C0.0268376 11.4044 -0.104591 10.0362 0.0876056 8.69456C0.279802 7.35289 0.790052 6.07664 1.57579 4.97227C2.36152 3.8679 3.39996 2.96743 4.60447 2.346C5.80897 1.72456 7.14462 1.40018 8.49999 1.3999ZM8.49999 4.3999C9.42699 4.3999 10.301 4.6299 11.068 5.0349C11.1775 5.54031 11.4158 6.00883 11.7597 6.395C12.1036 6.78117 12.5416 7.07187 13.031 7.2389L13.379 7.3579C13.9338 8.4225 14.1251 9.6394 13.9237 10.8229C13.7222 12.0064 13.139 13.0914 12.2632 13.9125C11.3874 14.7335 10.2669 15.2455 9.0729 15.3702C7.87888 15.4948 6.67686 15.2254 5.65028 14.6031C4.6237 13.9807 3.82895 13.0395 3.38733 11.9232C2.9457 10.8068 2.88146 9.57665 3.2044 8.42039C3.52734 7.26413 4.21973 6.24529 5.17589 5.51935C6.13205 4.79342 7.29947 4.40027 8.49999 4.3999ZM17 0.399902C17.1871 0.399902 17.3704 0.45238 17.5291 0.551374C17.6879 0.650367 17.8157 0.791905 17.898 0.959902L17.946 1.0769L18.076 1.4549C18.2132 1.85709 18.4343 2.22553 18.7246 2.53585C19.0149 2.84616 19.3678 3.09125 19.76 3.2549L19.945 3.3249L20.323 3.4539C20.5102 3.51776 20.6742 3.6357 20.7944 3.7928C20.9145 3.9499 20.9854 4.1391 20.9981 4.33648C21.0107 4.53386 20.9645 4.73055 20.8653 4.90168C20.7662 5.07282 20.6185 5.2107 20.441 5.2979L20.323 5.3459L19.945 5.4759C19.5428 5.6131 19.1744 5.83418 18.864 6.1245C18.5537 6.41481 18.3086 6.76774 18.145 7.1599L18.075 7.3449L17.946 7.7229C17.882 7.91004 17.764 8.07401 17.6068 8.19407C17.4497 8.31413 17.2604 8.3849 17.0631 8.39742C16.8657 8.40994 16.669 8.36366 16.498 8.26442C16.3269 8.16519 16.1891 8.01745 16.102 7.8399L16.054 7.7229L15.924 7.3449C15.7868 6.94272 15.5657 6.57427 15.2754 6.26396C14.9851 5.95365 14.6322 5.70855 14.24 5.5449L14.055 5.4749L13.677 5.3459C13.4898 5.28204 13.3257 5.1641 13.2056 5.00701C13.0854 4.84991 13.0145 4.66071 13.0019 4.46333C12.9893 4.26595 13.0355 4.06925 13.1346 3.89812C13.2338 3.72699 13.3815 3.5891 13.559 3.5019L13.677 3.4539L14.055 3.3239C14.4572 3.1867 14.8256 2.96562 15.1359 2.67531C15.4462 2.385 15.6913 2.03207 15.855 1.6399L15.925 1.4549L16.054 1.0769C16.1214 0.879489 16.2488 0.708087 16.4184 0.586692C16.588 0.465297 16.7914 0.399986 17 0.399902Z" fill="url(#paint0_linear_1442_11193)"/>
<defs>
<linearGradient id="paint0_linear_1442_11193" x1="10.5009" y1="0.399902" x2="10.5009" y2="20.5086" gradientUnits="userSpaceOnUse">
<stop stop-color="#42389E"/>
<stop offset="1" stop-color="#0F1026"/>
</linearGradient>
</defs>
</svg>
