<svg width="15" height="15" viewBox="0 0 15 15" fill="none" xmlns="http://www.w3.org/2000/svg">
<path fill-rule="evenodd" clip-rule="evenodd" d="M7.65002 0.952148C3.80258 0.952148 0.707275 4.04746 0.707275 7.89489C0.707275 10.9613 2.70331 13.5648 5.45148 14.4905C5.79862 14.5484 5.91433 14.3459 5.91433 14.1434C5.91433 13.9698 5.91433 13.5359 5.91433 12.9573C3.97615 13.3912 3.57116 12.0316 3.57116 12.0316C3.25295 11.2216 2.7901 11.0191 2.7901 11.0191C2.15368 10.5852 2.84796 10.5852 2.84796 10.5852C3.54223 10.6431 3.9183 11.3084 3.9183 11.3084C4.52579 12.3788 5.53827 12.0605 5.94326 11.887C6.00112 11.4241 6.17469 11.1348 6.37718 10.9613C4.84399 10.7877 3.22402 10.1802 3.22402 7.51883C3.22402 6.7667 3.48437 6.13028 3.94722 5.66743C3.88937 5.49386 3.62901 4.79959 4.00508 3.81603C4.00508 3.81603 4.58364 3.64246 5.91433 4.53923C6.46397 4.39459 7.07146 4.30781 7.65002 4.30781C8.22858 4.30781 8.83607 4.39459 9.38571 4.53923C10.7164 3.64246 11.295 3.81603 11.295 3.81603C11.671 4.77066 11.4396 5.46493 11.3528 5.66743C11.7867 6.15921 12.076 6.7667 12.076 7.51883C12.076 10.1802 10.456 10.7588 8.89393 10.9323C9.15428 11.1348 9.35678 11.5688 9.35678 12.2052C9.35678 13.1309 9.35678 13.883 9.35678 14.1144C9.35678 14.288 9.47249 14.5194 9.84856 14.4616C12.5967 13.5648 14.5928 10.9613 14.5928 7.89489C14.5928 4.04746 11.4975 0.952148 7.65002 0.952148Z" fill="white"/>
</svg>
