<svg width="38" height="39" viewBox="0 0 38 39" fill="none" xmlns="http://www.w3.org/2000/svg">
<path d="M36.25 0.660156H1.75C0.920312 0.660156 0.25 1.33047 0.25 2.16016V36.6602C0.25 37.4898 0.920312 38.1602 1.75 38.1602H36.25C37.0797 38.1602 37.75 37.4898 37.75 36.6602V2.16016C37.75 1.33047 37.0797 0.660156 36.25 0.660156ZM13.9375 27.4258V31.0352C13.9375 31.2414 13.7688 31.4102 13.5625 31.4102H11.3125C11.1062 31.4102 10.9375 31.2414 10.9375 31.0352V27.4258C8.98281 26.7883 7.5625 24.9508 7.5625 22.7852C7.5625 20.6195 8.98281 18.7773 10.9375 18.1445V7.78516C10.9375 7.57891 11.1062 7.41016 11.3125 7.41016H13.5625C13.7688 7.41016 13.9375 7.57891 13.9375 7.78516V18.1445C15.8922 18.782 17.3125 20.6195 17.3125 22.7852C17.3125 24.9508 15.8922 26.793 13.9375 27.4258ZM27.0437 20.6805C27.0531 20.6805 27.0578 20.6758 27.0625 20.6758V31.0352C27.0625 31.2414 26.8937 31.4102 26.6875 31.4102H24.4375C24.2313 31.4102 24.0625 31.2414 24.0625 31.0352V20.6758C24.0719 20.6758 24.0766 20.6805 24.0813 20.6805C22.1125 20.0523 20.6875 18.2102 20.6875 16.0352C20.6875 13.8602 22.1125 12.018 24.0813 11.3898C24.0719 11.3898 24.0672 11.3945 24.0625 11.3945V7.78516C24.0625 7.57891 24.2313 7.41016 24.4375 7.41016H26.6875C26.8937 7.41016 27.0625 7.57891 27.0625 7.78516V11.3945C27.0531 11.3945 27.0484 11.3898 27.0437 11.3898C29.0125 12.018 30.4375 13.8602 30.4375 16.0352C30.4375 18.2102 29.0125 20.0523 27.0437 20.6805ZM23.875 16.0352C23.875 16.4827 24.0528 16.9119 24.3693 17.2284C24.6857 17.5449 25.1149 17.7227 25.5625 17.7227C26.0101 17.7227 26.4393 17.5449 26.7557 17.2284C27.0722 16.9119 27.25 16.4827 27.25 16.0352C27.25 15.5876 27.0722 15.1584 26.7557 14.8419C26.4393 14.5254 26.0101 14.3477 25.5625 14.3477C25.1149 14.3477 24.6857 14.5254 24.3693 14.8419C24.0528 15.1584 23.875 15.5876 23.875 16.0352ZM13.9094 21.9648L13.8391 21.8523C13.8391 21.8477 13.8344 21.8477 13.8344 21.843L13.7922 21.7867C13.7875 21.782 13.7828 21.7773 13.7828 21.7727C13.7359 21.7117 13.6891 21.6555 13.6328 21.6039L13.6234 21.5945C13.6047 21.5758 13.5859 21.557 13.5672 21.543C13.5297 21.5055 13.4875 21.4727 13.4453 21.4445H13.4406L13.3844 21.4023C13.3797 21.3977 13.3703 21.393 13.3656 21.3883C13.3094 21.3508 13.2484 21.3133 13.1828 21.2852C13.1734 21.2805 13.1594 21.2758 13.15 21.2664C13.1313 21.257 13.1172 21.2523 13.0984 21.243C13.0844 21.2383 13.0656 21.2289 13.0516 21.2242C13.0281 21.2148 13.0047 21.2055 12.9813 21.2008C12.9625 21.1961 12.9391 21.1867 12.9203 21.182L12.8781 21.168L12.8125 21.1539C12.8031 21.1492 12.7891 21.1492 12.7797 21.1445C12.7469 21.1398 12.7141 21.1305 12.6813 21.1258C12.6719 21.1258 12.6625 21.1258 12.6531 21.1211C12.625 21.1164 12.6016 21.1164 12.5734 21.1117C12.5641 21.1117 12.5547 21.1117 12.5406 21.107C12.5031 21.107 12.4703 21.1023 12.4328 21.1023C12.3953 21.1023 12.3625 21.1023 12.325 21.107C12.3156 21.107 12.3062 21.107 12.2922 21.1117C12.2641 21.1117 12.2359 21.1164 12.2125 21.1211C12.2031 21.1211 12.1938 21.1211 12.1844 21.1258C12.1516 21.1305 12.1187 21.1352 12.0859 21.1445C12.0766 21.1492 12.0625 21.1492 12.0531 21.1539L11.9875 21.168L11.9453 21.182C11.9266 21.1867 11.9031 21.1961 11.8844 21.2008C11.8609 21.2102 11.8375 21.2195 11.8141 21.2242C11.8 21.2289 11.7813 21.2383 11.7672 21.243C11.7484 21.2523 11.7344 21.257 11.7156 21.2664C11.7063 21.2711 11.6922 21.2758 11.6828 21.2852C11.6219 21.318 11.5609 21.3508 11.5 21.3883C11.4953 21.393 11.4859 21.3977 11.4813 21.4023L11.425 21.4445H11.4203C11.3781 21.4773 11.3359 21.5102 11.2984 21.543C11.2797 21.5617 11.2609 21.5758 11.2422 21.5945L11.2328 21.6039C11.1804 21.6579 11.1303 21.7142 11.0828 21.7727C11.0781 21.7773 11.0734 21.782 11.0734 21.7867L11.0312 21.843C11.0312 21.8477 11.0266 21.8477 11.0266 21.8523L10.9562 21.9648C10.9516 21.9742 10.9469 21.9789 10.9422 21.9883C10.8156 22.2273 10.7406 22.4992 10.7406 22.7852C10.7406 23.0711 10.8156 23.3477 10.9422 23.582C10.9469 23.5914 10.9516 23.5961 10.9562 23.6055L11.0266 23.718C11.0266 23.7227 11.0312 23.7227 11.0312 23.7273L11.0734 23.7836C11.0781 23.7883 11.0828 23.793 11.0828 23.7977C11.1297 23.8586 11.1766 23.9148 11.2328 23.9664L11.2422 23.9758C11.2609 23.9945 11.2797 24.0133 11.2984 24.0273C11.3359 24.0648 11.3781 24.0977 11.4203 24.1258H11.425L11.4813 24.168C11.4859 24.1727 11.4953 24.1773 11.5 24.182C11.5562 24.2195 11.6172 24.257 11.6828 24.2852C11.6922 24.2898 11.7063 24.2945 11.7156 24.3039C11.7344 24.3133 11.7484 24.318 11.7672 24.3273C11.7813 24.332 11.8 24.3414 11.8141 24.3461C11.8375 24.3555 11.8609 24.3648 11.8844 24.3695C11.9031 24.3742 11.9266 24.3836 11.9453 24.3883L11.9875 24.4023L12.0531 24.4164C12.0625 24.4211 12.0766 24.4211 12.0859 24.4258C12.1187 24.4305 12.1516 24.4398 12.1844 24.4445C12.1938 24.4445 12.2031 24.4445 12.2125 24.4492C12.2406 24.4539 12.2641 24.4539 12.2922 24.4586C12.3016 24.4586 12.3109 24.4586 12.325 24.4633C12.3625 24.4633 12.3953 24.468 12.4328 24.468C12.4703 24.468 12.5031 24.468 12.5406 24.4633C12.55 24.4633 12.5594 24.4633 12.5734 24.4586C12.6016 24.4586 12.6297 24.4539 12.6531 24.4492C12.6625 24.4492 12.6719 24.4492 12.6813 24.4445C12.7141 24.4398 12.7469 24.4352 12.7797 24.4258C12.7891 24.4211 12.8031 24.4211 12.8125 24.4164L12.8781 24.4023L12.9203 24.3883C12.9391 24.3836 12.9625 24.3742 12.9813 24.3695C13.0047 24.3602 13.0281 24.3508 13.0516 24.3461C13.0656 24.3414 13.0844 24.332 13.0984 24.3273C13.1172 24.318 13.1313 24.3133 13.15 24.3039C13.1594 24.2992 13.1734 24.2945 13.1828 24.2852C13.2437 24.2523 13.3047 24.2195 13.3656 24.182C13.3703 24.1773 13.3797 24.1727 13.3844 24.168L13.4406 24.1258H13.4453C13.4875 24.093 13.5297 24.0602 13.5672 24.0273C13.5859 24.0086 13.6047 23.9945 13.6234 23.9758L13.6328 23.9664C13.6844 23.9148 13.7359 23.8539 13.7828 23.7977C13.7875 23.793 13.7922 23.7883 13.7922 23.7836L13.8344 23.7273C13.8344 23.7227 13.8391 23.7227 13.8391 23.718L13.9094 23.6055C13.9141 23.5961 13.9188 23.5914 13.9234 23.582C14.05 23.343 14.125 23.0711 14.125 22.7852C14.125 22.4992 14.05 22.2227 13.9234 21.9883C13.9188 21.9789 13.9141 21.9695 13.9094 21.9648Z" fill="url(#paint0_linear_1526_3419)"/>
<defs>
<linearGradient id="paint0_linear_1526_3419" x1="19" y1="0.660156" x2="19" y2="38.1602" gradientUnits="userSpaceOnUse">
<stop stop-color="#42389E"/>
<stop offset="1" stop-color="#0F1026"/>
</linearGradient>
</defs>
</svg>
