<svg width="22" height="20" viewBox="0 0 22 20" fill="none" xmlns="http://www.w3.org/2000/svg">
<path d="M19 7.3999V5.3999C19 4.2999 18.1 3.3999 17 3.3999H14C14 1.7399 12.66 0.399902 11 0.399902C9.34 0.399902 8 1.7399 8 3.3999H5C3.9 3.3999 3 4.2999 3 5.3999V7.3999C1.34 7.3999 0 8.7399 0 10.3999C0 12.0599 1.34 13.3999 3 13.3999V17.3999C3 18.4999 3.9 19.3999 5 19.3999H17C18.1 19.3999 19 18.4999 19 17.3999V13.3999C20.66 13.3999 22 12.0599 22 10.3999C22 8.7399 20.66 7.3999 19 7.3999ZM6.5 9.8999C6.5 9.0699 7.17 8.3999 8 8.3999C8.83 8.3999 9.5 9.0699 9.5 9.8999C9.5 10.7299 8.83 11.3999 8 11.3999C7.17 11.3999 6.5 10.7299 6.5 9.8999ZM14 15.3999H8C7.45 15.3999 7 14.9499 7 14.3999C7 13.8499 7.45 13.3999 8 13.3999H14C14.55 13.3999 15 13.8499 15 14.3999C15 14.9499 14.55 15.3999 14 15.3999ZM14 11.3999C13.17 11.3999 12.5 10.7299 12.5 9.8999C12.5 9.0699 13.17 8.3999 14 8.3999C14.83 8.3999 15.5 9.0699 15.5 9.8999C15.5 10.7299 14.83 11.3999 14 11.3999Z" fill="url(#paint0_linear_1442_11180)"/>
<defs>
<linearGradient id="paint0_linear_1442_11180" x1="11" y1="0.399902" x2="11" y2="19.3999" gradientUnits="userSpaceOnUse">
<stop stop-color="#42389E"/>
<stop offset="1" stop-color="#0F1026"/>
</linearGradient>
</defs>
</svg>
