<svg width="157" height="135" viewBox="0 0 157 135" fill="none" xmlns="http://www.w3.org/2000/svg">
<path fill-rule="evenodd" clip-rule="evenodd" d="M16.1038 0.0316162C11.9756 0.0316162 8.01655 1.60889 5.09749 4.41645C2.17842 7.22401 0.538513 11.0319 0.538513 15.0024V119.798C0.538513 123.768 2.17842 127.576 5.09749 130.384C8.01655 133.191 11.9756 134.768 16.1038 134.768H140.626C144.755 134.768 148.714 133.191 151.633 130.384C154.552 127.576 156.192 123.768 156.192 119.798V15.0024C156.192 11.0319 154.552 7.22401 151.633 4.41645C148.714 1.60889 144.755 0.0316162 140.626 0.0316162H16.1038ZM52.0986 42.1743C52.2713 40.7432 52.7894 39.3708 53.6115 38.1665C54.4336 36.9622 55.537 35.9593 56.8336 35.238C58.1302 34.5166 59.5842 34.0967 61.0795 34.0118C62.5748 33.9269 64.07 34.1793 65.4459 34.7488C69.3683 36.3657 77.6491 40.0035 88.1401 45.8272C95.513 49.88 102.633 54.3439 109.465 59.1961C110.666 60.0556 111.641 61.1734 112.313 62.46C112.985 63.7467 113.335 65.1667 113.335 66.6066C113.335 68.0465 112.985 69.4665 112.313 70.7531C111.641 72.0398 110.666 73.1575 109.465 74.0171C102.633 78.8641 95.5126 83.323 88.1401 87.371C80.8066 91.491 73.2289 95.1951 65.4459 98.4644C64.0701 99.0356 62.5745 99.2892 61.0786 99.205C59.5827 99.1208 58.1281 98.7012 56.831 97.9796C55.5339 97.2579 54.4303 96.2544 53.6086 95.0492C52.7869 93.8441 52.2698 92.4706 52.0986 91.0389C51.1648 82.926 50.7075 74.769 50.7289 66.6066C50.7289 54.9968 51.6005 46.2538 52.0986 42.1743Z" fill="#E40505"/>
</svg>
