<svg width="121" height="61" viewBox="0 0 121 61" fill="none" xmlns="http://www.w3.org/2000/svg">
<path fill-rule="evenodd" clip-rule="evenodd" d="M16.4979 43.0159V34.1699L22.5339 36.2269V45.1829L16.4979 43.0159ZM29.6759 43.0159V34.1699L23.6399 36.2269V45.1829L29.6759 43.0159ZM23.2259 31.7879L28.8899 33.6139L23.2259 35.5369L17.1259 33.5069L23.2259 31.7879ZM9.31091 30.6579V21.7999L15.3469 23.8559V32.8119L9.31091 30.6579ZM22.4909 30.6569V21.7999L16.4549 23.8559V32.8119L22.4909 30.6569ZM16.0409 19.4269L21.7049 21.2539L16.0409 23.1769L9.94091 21.1469L16.0409 19.4269ZM23.3959 30.6569V21.7999L29.4319 23.8559V32.8119L23.3959 30.6569ZM36.5739 30.6569V21.7999L30.5379 23.8559V32.8119L36.5739 30.6569ZM30.1339 19.4269L35.7979 21.2539L30.1339 23.1769L24.0339 21.1469L30.1339 19.4269ZM30.5919 18.2969V9.44995L36.6279 11.5069V20.4619L30.5919 18.2969ZM43.7619 18.2959V9.44995L37.7259 11.5069V20.4619L43.7619 18.2959ZM37.3109 7.06995L42.9749 8.89595L37.3109 10.8189L31.2109 8.78895L37.3109 7.06995ZM44.6659 18.2969V9.44995L50.7019 11.5069V20.4619L44.6659 18.2969ZM57.8339 18.2969V9.44995L51.7979 11.5069V20.4619L57.8339 18.2969ZM51.3939 7.06995L57.0579 8.89595L51.3939 10.8189L45.2939 8.78895L51.3939 7.06995Z" fill="#1A1C3D"/>
<path d="M47.6319 39.418L45.6039 46.462H44.7239L43.1239 41.23L41.6759 46.462H40.7779L38.6709 39.418H39.7709L41.3059 44.668L42.7659 39.418H43.5699L45.1579 44.684L46.7359 39.418H47.6209H47.6319ZM53.2399 44.36L54.2599 44.56C54.0726 45.1644 53.6908 45.69 53.1739 46.055C52.6339 46.45 52.0019 46.647 51.2739 46.647C50.3139 46.647 49.5359 46.309 48.9419 45.631C48.3479 44.953 48.0419 44.066 48.0419 42.968C48.0419 41.846 48.3419 40.94 48.9679 40.248C49.2548 39.9141 49.6121 39.648 50.0141 39.4687C50.4161 39.2894 50.8528 39.2014 51.2929 39.211C52.2129 39.211 52.9509 39.529 53.5109 40.166C54.0709 40.803 54.3569 41.754 54.3709 43.022H49.2579C49.2579 44.087 49.4799 44.806 49.9259 45.178C50.3719 45.55 50.8419 45.736 51.3379 45.736C52.2329 45.736 52.8639 45.274 53.2299 44.349L53.2399 44.36ZM53.1799 42.216C53.1699 41.821 53.1059 41.47 52.9849 41.163C52.8639 40.856 52.6599 40.595 52.3719 40.379C52.0839 40.163 51.7389 40.055 51.3349 40.055C51.0766 40.0508 50.8202 40.1008 50.5823 40.2017C50.3445 40.3026 50.1304 40.4523 49.9539 40.641C49.5759 41.041 49.3539 41.556 49.3169 42.216H53.1789H53.1799ZM56.3499 46.462H55.8229V36.962H56.9199V40.602C57.4199 39.689 58.1199 39.232 58.9929 39.232C59.7989 39.232 60.4749 39.552 61.0199 40.189C61.5649 40.826 61.8369 41.753 61.8369 42.967C61.8369 44.014 61.5669 44.892 61.0329 45.602C60.4989 46.312 59.7989 46.667 58.9409 46.667C57.9849 46.667 57.2409 46.213 56.7409 45.307L56.3409 46.472L56.3499 46.462ZM56.9199 43.702C56.9699 44.425 57.1929 44.95 57.5849 45.276C57.9769 45.602 58.3919 45.776 58.8289 45.776C59.3859 45.776 59.8349 45.534 60.1769 45.05C60.5189 44.566 60.6889 43.903 60.6889 43.062C60.6889 42.155 60.5239 41.442 60.1949 40.922C59.8659 40.402 59.4079 40.144 58.8229 40.144C58.3629 40.144 57.9489 40.329 57.5789 40.698C57.2089 41.067 56.9789 41.545 56.9209 42.13V43.7L56.9199 43.702ZM64.6329 44.636L65.6789 44.42C65.9109 45.305 66.6469 45.747 67.8829 45.747C68.3379 45.747 68.7249 45.645 69.0409 45.441C69.1899 45.3526 69.3126 45.226 69.3961 45.0742C69.4796 44.9225 69.521 44.7511 69.5159 44.578C69.5159 44.028 69.1129 43.678 68.3079 43.528L66.8249 43.246C66.2449 43.134 65.7819 42.916 65.4379 42.59C65.0939 42.264 64.9229 41.835 64.9229 41.29C64.9229 40.69 65.1569 40.206 65.6269 39.808C66.0969 39.41 66.7269 39.212 67.5219 39.212C69.0499 39.212 69.9919 39.809 70.3519 41.004L69.3479 41.22C69.0599 40.49 68.4679 40.123 67.5729 40.123C67.1269 40.123 66.7609 40.223 66.4759 40.397C66.3424 40.4745 66.2322 40.5865 66.1569 40.7213C66.0815 40.856 66.0439 41.0086 66.0479 41.163C66.0479 41.681 66.4129 42.006 67.1419 42.141L68.5119 42.393C69.9479 42.653 70.6649 43.35 70.6649 44.481C70.6712 44.7882 70.6012 45.0923 70.4612 45.3659C70.3213 45.6395 70.1157 45.8742 69.8629 46.049C69.3289 46.4469 68.6179 46.647 67.7289 46.647C66.0589 46.647 65.0289 45.973 64.6329 44.627V44.636ZM76.4989 44.36L77.5189 44.56C77.3339 45.162 76.9719 45.66 76.4329 46.055C75.8939 46.45 75.2609 46.647 74.5329 46.647C73.5729 46.647 72.7949 46.309 72.2009 45.631C71.6069 44.953 71.3009 44.066 71.3009 42.968C71.3009 41.846 71.6089 40.94 72.2269 40.248C72.5138 39.9141 72.8711 39.648 73.2731 39.4687C73.6751 39.2894 74.1118 39.2014 74.5519 39.211C75.4699 39.211 76.2099 39.529 76.7689 40.166C77.3279 40.803 77.6149 41.754 77.6289 43.022H72.5169C72.5169 44.087 72.7389 44.806 73.1839 45.178C73.6289 45.55 74.0999 45.736 74.5969 45.736C75.4919 45.736 76.1229 45.274 76.4889 44.349L76.4989 44.36ZM76.4389 42.216C76.4289 41.821 76.3639 41.47 76.2439 41.163C76.1239 40.856 75.9199 40.595 75.6319 40.379C75.3439 40.163 74.9989 40.055 74.5949 40.055C74.3364 40.0506 74.0798 40.1006 73.8418 40.2015C73.6038 40.3024 73.3895 40.4521 73.2129 40.641C72.8349 41.041 72.6129 41.556 72.5769 42.216H76.4389ZM79.9159 46.462H78.8189V39.418H79.7789V41.06C80.1189 40.29 80.4589 39.792 80.7989 39.565C81.1389 39.338 81.4989 39.223 81.8469 39.223C81.9912 39.225 82.1354 39.2336 82.2789 39.249V40.295H82.0569C81.4539 40.295 80.9529 40.519 80.5539 40.967C80.1549 41.415 79.9419 42.004 79.9139 42.733V46.463L79.9159 46.462ZM89.0959 39.418L86.6639 46.462H85.5269L83.0139 39.418H84.2279L86.1829 45.143L88.1229 39.418H89.0959ZM91.1459 36.95V38.167H89.9739V36.95H91.1479H91.1459ZM91.1199 39.417V46.461H90.0339V39.417H91.1309H91.1199ZM96.8539 43.995L97.8409 44.169C97.7009 44.947 97.3929 45.556 96.9149 45.997C96.4369 46.438 95.8399 46.657 95.1149 46.657C94.1449 46.657 93.4149 46.297 92.8949 45.582C92.3749 44.867 92.1319 43.982 92.1319 42.957C92.1319 41.887 92.3999 40.997 92.9369 40.287C93.4739 39.577 94.2039 39.222 95.1369 39.222C95.9029 39.222 96.5169 39.452 96.9799 39.922C97.4429 40.392 97.7299 40.972 97.8399 41.7L96.8529 41.888C96.6669 40.725 96.1059 40.144 95.1679 40.144C94.888 40.1345 94.6107 40.2012 94.3656 40.3368C94.1205 40.4723 93.9167 40.6718 93.7759 40.914C93.4509 41.427 93.2879 42.092 93.2879 42.91C93.2879 43.81 93.4479 44.51 93.7719 45.01C93.9112 45.2449 94.1109 45.4383 94.3503 45.57C94.5896 45.7017 94.8598 45.767 95.1329 45.759C96.0379 45.759 96.6109 45.175 96.8529 44.006L96.8539 43.995ZM104.03 44.36L105.05 44.56C104.863 45.1644 104.481 45.69 103.964 46.055C103.424 46.45 102.792 46.647 102.064 46.647C101.104 46.647 100.324 46.309 99.7309 45.631C99.1379 44.953 98.8309 44.066 98.8309 42.968C98.8309 41.846 99.1309 40.94 99.7569 40.248C100.044 39.9141 100.401 39.648 100.803 39.4687C101.205 39.2894 101.642 39.2014 102.082 39.211C103.002 39.211 103.742 39.529 104.3 40.166C104.858 40.803 105.146 41.754 105.16 43.022H100.048C100.048 44.087 100.27 44.806 100.716 45.178C101.162 45.55 101.632 45.736 102.128 45.736C103.023 45.736 103.654 45.274 104.02 44.349L104.03 44.36ZM103.97 42.216C103.96 41.821 103.896 41.47 103.775 41.163C103.649 40.8491 103.437 40.5772 103.163 40.379C102.875 40.163 102.53 40.055 102.126 40.055C101.868 40.0503 101.611 40.1001 101.374 40.201C101.136 40.302 100.922 40.4519 100.746 40.641C100.37 41.041 100.146 41.556 100.109 42.216H103.971H103.97ZM105.79 44.636L106.836 44.42C107.068 45.305 107.803 45.747 109.04 45.747C109.495 45.747 109.88 45.645 110.198 45.441C110.347 45.3525 110.469 45.2258 110.553 45.0741C110.636 44.9223 110.677 44.751 110.672 44.578C110.672 44.028 110.269 43.678 109.465 43.528L107.982 43.246C107.402 43.134 106.939 42.916 106.595 42.59C106.251 42.264 106.08 41.835 106.08 41.29C106.08 40.69 106.314 40.206 106.784 39.808C107.254 39.41 107.884 39.212 108.679 39.212C110.207 39.212 111.149 39.809 111.509 41.004L110.505 41.22C110.217 40.49 109.625 40.123 108.73 40.123C108.284 40.123 107.93 40.223 107.633 40.397C107.499 40.4745 107.389 40.5865 107.314 40.7213C107.239 40.856 107.201 41.0086 107.205 41.163C107.205 41.681 107.57 42.006 108.299 42.141L109.669 42.393C111.105 42.653 111.822 43.35 111.822 44.481C111.828 44.7882 111.758 45.0923 111.618 45.3659C111.478 45.6395 111.273 45.8742 111.02 46.049C110.486 46.4469 109.775 46.647 108.886 46.647C107.218 46.647 106.186 45.973 105.791 44.627L105.79 44.636Z" fill="#1A1C3D" stroke="#1A1C3D" stroke-width="0.213"/>
<path fill-rule="evenodd" clip-rule="evenodd" d="M81.0539 24.3639V22.6719C81.0525 22.6151 81.0627 22.5585 81.0838 22.5058C81.105 22.453 81.1366 22.405 81.1768 22.3648C81.217 22.3246 81.2649 22.293 81.3177 22.2719C81.3705 22.2507 81.4271 22.2405 81.4839 22.2419H89.0669C89.3089 22.2419 89.5039 22.4179 89.5049 22.6689V24.1189C89.5029 24.3619 89.2979 24.6789 88.9349 25.1839L85.0079 30.7919C86.4659 30.7579 88.0079 30.9759 89.3329 31.7219C89.6329 31.8899 89.7109 32.1379 89.7349 32.3819V34.1869C89.7349 34.4369 89.4629 34.7239 89.1769 34.5739C86.8429 33.3509 83.7469 33.2169 81.1649 34.5879C80.9009 34.7279 80.6249 34.4449 80.6249 34.1959V32.4799C80.6249 32.2049 80.6299 31.7359 80.9069 31.3169L85.4569 24.7869H81.4939C81.4367 24.7895 81.3797 24.7804 81.3261 24.7601C81.2726 24.7399 81.2238 24.7089 81.1827 24.6691C81.1416 24.6293 81.1091 24.5815 81.0871 24.5287C81.0651 24.4759 81.0542 24.4191 81.0549 24.3619L81.0539 24.3639ZM53.9169 34.9319H51.6099C51.3899 34.9179 51.2149 34.7519 51.1979 34.5319L51.1989 22.6919C51.1989 22.4549 51.3989 22.2659 51.6439 22.2659L53.7919 22.2649C54.0169 22.2769 54.1969 22.4469 54.2119 22.6629V24.2089H54.2549C54.8149 22.7139 55.8699 22.0159 57.2909 22.0159C58.7339 22.0159 59.6379 22.7139 60.2849 24.2089C60.8449 22.7139 62.1149 22.0159 63.4719 22.0159C64.4419 22.0159 65.4959 22.4159 66.1419 23.3119C66.8739 24.3079 66.7239 25.7539 66.7239 27.0249L66.7219 34.4969C66.7219 34.7339 66.5219 34.9229 66.2769 34.9229H63.9739C63.7439 34.9079 63.5599 34.7249 63.5599 34.4979V28.2299C63.5599 27.7299 63.6029 26.4859 63.4949 26.0119C63.3229 25.2149 62.7949 24.9899 62.1389 24.9899C61.5789 24.9899 60.9969 25.3639 60.7589 25.9619C60.5209 26.5599 60.5439 27.5569 60.5439 28.2299V34.5059C60.5439 34.7429 60.3439 34.9319 60.0989 34.9319H57.7939C57.5619 34.9169 57.3799 34.7339 57.3799 34.5069L57.3779 28.2299C57.3779 26.9099 57.5929 24.9659 55.9579 24.9659C54.2999 24.9659 54.3639 26.8589 54.3639 28.2299V34.5059C54.3639 34.7429 54.1639 34.9319 53.9189 34.9319H53.9169ZM95.0769 22.0249C98.4739 22.0249 100.311 24.9649 100.311 28.7029C100.311 32.3159 98.2809 35.1809 95.0769 35.1809C91.7439 35.1809 89.9269 32.2409 89.9269 28.5779C89.9269 24.8909 91.7649 22.0249 95.0769 22.0249ZM95.0989 24.7469C93.4109 24.7469 93.3039 27.0639 93.3039 28.5089C93.3039 29.9539 93.2839 32.7389 95.0779 32.7389C96.8519 32.7389 96.9379 30.5519 96.9379 29.0319C96.9379 28.0359 96.8959 26.8389 96.5979 25.8919C96.3409 25.0699 95.8279 24.7459 95.1019 24.7459L95.0989 24.7469ZM105.227 34.9319H102.929C102.699 34.9169 102.515 34.7339 102.515 34.5069L102.511 22.6619C102.531 22.4449 102.711 22.2759 102.954 22.2759L105.094 22.2749C105.189 22.2785 105.28 22.3128 105.354 22.3726C105.428 22.4325 105.481 22.5147 105.504 22.6069V24.4069H105.548C106.194 22.7869 107.098 22.0149 108.692 22.0149C109.725 22.0149 110.738 22.3889 111.384 23.4099C111.987 24.3569 111.987 25.9499 111.987 27.0979V34.5479C111.961 34.7479 111.773 34.9209 111.545 34.9209H109.232C109.019 34.9069 108.847 34.7509 108.832 34.5479V28.1179C108.832 26.8229 108.982 24.9179 107.389 24.9179C106.829 24.9179 106.312 25.2919 106.054 25.8649C105.731 26.5879 105.687 27.3099 105.687 28.1079V34.4839C105.683 34.7209 105.484 34.9099 105.237 34.9099L105.227 34.9319ZM75.2719 29.2769C75.2719 30.1769 75.2939 30.9249 74.8399 31.7239C74.4729 32.3739 73.8899 32.7739 73.2429 32.7739C72.3579 32.7739 71.8399 32.0999 71.8399 31.1009C71.8399 29.1369 73.6029 28.7789 75.2699 28.7789V29.2789L75.2719 29.2769ZM77.5979 34.9019C77.4449 35.0389 77.2249 35.0479 77.0529 34.9559C76.2869 34.3189 76.1499 34.0259 75.7309 33.4179C74.4649 34.7179 73.5679 35.0949 71.9279 35.0949C69.9859 35.0949 68.4749 33.8949 68.4749 31.4989C68.4749 29.6259 69.4889 28.3529 70.9349 27.7289C72.1869 27.1789 73.9349 27.0789 75.2729 26.9289V26.6289C75.2729 26.0789 75.3159 25.4309 74.9929 24.9559C74.7129 24.5309 74.1729 24.3559 73.6979 24.3559C72.8179 24.3559 72.0359 24.8059 71.8429 25.7419C71.8029 25.9499 71.6509 26.1549 71.4429 26.1659L69.2069 25.9239C69.0069 25.8809 68.8069 25.7299 68.8629 25.4419C69.3769 22.7289 71.8269 21.9099 74.0229 21.9099C75.1449 21.9099 76.6229 22.2099 77.4969 23.0599C78.6199 24.1099 78.5109 25.5069 78.5109 27.0299V30.6239C78.5109 31.7039 78.9609 32.1789 79.3809 32.7619C79.5279 32.9619 79.5609 33.2219 79.3729 33.3749L77.6029 34.9069L77.5969 34.9009L77.5979 34.9019ZM45.2909 29.2769C45.2909 30.1769 45.3129 30.9249 44.8589 31.7239C44.4919 32.3739 43.9089 32.7739 43.2619 32.7739C42.3769 32.7739 41.8589 32.0999 41.8589 31.1009C41.8589 29.1369 43.6209 28.7789 45.2889 28.7789V29.2789L45.2909 29.2769ZM47.6169 34.9019C47.4639 35.0389 47.2439 35.0479 47.0719 34.9559C46.3059 34.3189 46.1679 34.0259 45.7499 33.4179C44.4839 34.7179 43.5869 35.0949 41.9469 35.0949C40.0049 35.0949 38.4939 33.8949 38.4939 31.4989C38.4939 29.6259 39.5079 28.3529 40.9539 27.7289C42.2059 27.1789 43.9539 27.0789 45.2919 26.9289V26.6289C45.2919 26.0789 45.3349 25.4309 45.0119 24.9559C44.7319 24.5309 44.1919 24.3559 43.7169 24.3559C42.8369 24.3559 42.0549 24.8059 41.8619 25.7419C41.8219 25.9499 41.6619 26.1549 41.4619 26.1659L39.2259 25.9239C39.0259 25.8809 38.8259 25.7299 38.8819 25.4419C39.3949 22.7289 41.8449 21.9099 44.0419 21.9099C45.1639 21.9099 46.6419 22.2099 47.5169 23.0599C48.6389 24.1099 48.5309 25.5069 48.5309 27.0299V30.6239C48.5309 31.7039 48.9809 32.1789 49.4009 32.7619C49.5479 32.9619 49.5809 33.2219 49.3939 33.3749L47.6339 34.9069L47.6279 34.9009L47.6169 34.9019Z" fill="#1A1C3D"/>
</svg>
