<svg width="121" height="61" viewBox="0 0 121 61" fill="none" xmlns="http://www.w3.org/2000/svg">
<path d="M25.6379 48.1229V41.1429C33.0279 41.1429 38.7629 33.8149 35.9259 26.0379C34.8859 23.1799 32.5779 20.8739 29.6999 19.8329C21.9229 17.0159 14.5949 22.7329 14.5949 30.1209H7.63391C7.63391 18.3399 19.0339 9.15588 31.3739 13.0139C36.7639 14.7079 41.0699 18.9939 42.7439 24.3839C46.6019 36.7339 37.4159 48.1229 25.6379 48.1229Z" fill="#1A1C3D"/>
<path fill-rule="evenodd" clip-rule="evenodd" d="M25.6579 34.2219V41.1819H18.6979V34.2219H25.6579ZM18.6979 41.1819V46.4999H13.3699V41.1719L18.6979 41.1819ZM13.3699 41.1819H8.8999V36.7119H13.3699V41.1819Z" fill="#1A1C3D"/>
<path d="M61.3879 14.2669C59.8079 13.1539 57.7879 12.6149 55.4879 12.6149H50.4609V28.5949H55.5339C57.8319 28.5949 59.8339 28.0199 61.4339 26.8349C62.2959 26.2349 62.9779 25.3629 63.4809 24.2849C63.9479 23.2079 64.1989 21.9149 64.1989 20.5149C64.1989 19.1149 63.9489 17.8579 63.4809 16.7809C62.9779 15.7039 62.2959 14.8409 61.3979 14.2669H61.3879ZM53.4159 15.3069H54.9959C56.7559 15.3069 58.1919 15.6669 59.2959 16.3469C60.5159 17.1009 61.1259 18.5019 61.1259 20.5119C61.1259 22.5949 60.5259 24.0669 59.2959 24.8569C58.2559 25.5389 56.8179 25.8969 55.0229 25.8969H53.4069V15.2999L53.4159 15.3069ZM67.6719 12.3999C67.1689 12.3999 66.7739 12.5799 66.4149 12.9029C66.2515 13.0608 66.1225 13.2508 66.036 13.4609C65.9494 13.671 65.9072 13.8967 65.9119 14.1239C65.9119 14.6269 66.0919 15.0219 66.4149 15.3809C66.7379 15.7039 67.1689 15.8839 67.6719 15.8839C68.1393 15.8801 68.588 15.7005 68.9289 15.3809C69.2519 15.0579 69.4319 14.6269 69.4319 14.1239C69.4367 13.8967 69.3945 13.671 69.3079 13.4609C69.2214 13.2508 69.0923 13.0608 68.9289 12.9029C68.5689 12.5799 68.1289 12.3999 67.6719 12.3999ZM66.2339 17.3199H69.0709V28.5949H66.2339V17.3199ZM79.3779 18.2529C78.5159 17.4989 77.5829 17.0329 76.5409 17.0329C74.9609 17.0329 73.6679 17.5729 72.6629 18.6489C71.6579 19.6889 71.1189 21.0549 71.1189 22.7069C71.1189 24.2869 71.6219 25.6519 72.6269 26.7289C73.6319 27.7689 74.9609 28.3089 76.5049 28.3089C77.5819 28.3089 78.5519 28.0219 79.3049 27.4109V27.6609C79.3049 28.5949 79.0549 29.3129 78.5509 29.8159C78.0469 30.3189 77.3659 30.5699 76.5039 30.5699C75.2109 30.5699 74.3839 30.0669 73.3799 28.7029L71.4399 30.5699L71.4759 30.6419C71.9059 31.2169 72.5159 31.7919 73.3789 32.3299C74.2049 32.8699 75.2819 33.1559 76.5389 33.1559C78.2269 33.1559 79.5909 32.6529 80.5969 31.6119C81.6029 30.5709 82.1049 29.2059 82.1049 27.5179V17.2839H79.3049V18.2539L79.3779 18.2529ZM78.6339 24.9319C78.1309 25.5069 77.4839 25.7579 76.6939 25.7579C75.8679 25.7579 75.2579 25.4709 74.7539 24.9319C74.2509 24.3569 74.0359 23.6389 74.0359 22.7319C74.0359 21.7979 74.2859 21.0799 74.7539 20.5059C75.2219 19.9319 75.9039 19.6799 76.6939 19.6799C77.5199 19.6799 78.1299 19.9669 78.6339 20.5059C79.1369 21.0809 79.3879 21.8359 79.3879 22.7319C79.3879 23.6279 79.1379 24.3479 78.6339 24.9319ZM84.5839 17.3199H87.4209V28.5949H84.5839V17.3199ZM86.0209 12.3999C85.5179 12.3999 85.1229 12.5799 84.7639 12.9029C84.6005 13.0608 84.4715 13.2508 84.385 13.4609C84.2984 13.671 84.2562 13.8967 84.2609 14.1239C84.2609 14.6269 84.4409 15.0219 84.7639 15.3809C85.0869 15.7039 85.5179 15.8839 86.0209 15.8839C86.4883 15.8801 86.937 15.7005 87.2779 15.3809C87.6009 15.0579 87.7809 14.6269 87.7809 14.1239C87.7857 13.8967 87.7435 13.671 87.6569 13.4609C87.5704 13.2508 87.4413 13.0608 87.2779 12.9029C86.9179 12.5799 86.5239 12.3999 86.0209 12.3999ZM93.6339 14.2669H90.8339V17.3189H89.2179V19.9039H90.8339V24.5719C90.8339 26.0439 91.1209 27.0859 91.6959 27.6959C92.2709 28.3059 93.3119 28.5939 94.7479 28.5939L96.1129 28.5579H96.2569V25.9729L95.2869 26.0089C94.6049 26.0089 94.1739 25.9009 93.9569 25.6489C93.7399 25.3969 93.6339 24.8959 93.6339 24.1419V19.8699H96.2909V17.2849H93.6339V14.2699V14.2669ZM109.577 12.5799H112.414V28.5949H109.577V12.5799Z" fill="#1A1C3D"/>
<path d="M106.022 18.1799C105.16 17.4619 103.975 17.0669 102.502 17.0669C101.568 17.0669 100.672 17.2819 99.8819 17.6669C99.1279 18.0269 98.4099 18.6719 97.9419 19.4619L97.9779 19.4979L99.8079 21.2219C100.562 20.0369 101.388 19.6059 102.501 19.6059C103.101 19.6059 103.578 19.7499 103.973 20.0729C104.333 20.3959 104.548 20.7909 104.548 21.2929V21.8329C103.83 21.6179 103.148 21.5099 102.465 21.5099C101.065 21.5099 99.9149 21.8329 99.0649 22.4799C98.2149 23.1269 97.7719 24.0959 97.7719 25.3169C97.7719 26.3939 98.1319 27.2199 98.8849 27.8669C99.6389 28.4669 100.537 28.8009 101.615 28.8009C102.693 28.8009 103.698 28.3709 104.631 27.6159V28.5499H107.431V21.2959C107.323 19.9659 106.891 18.8899 106.031 18.1719L106.022 18.1799ZM100.995 24.2839C101.318 24.0689 101.795 23.9609 102.36 23.9609C103.042 23.9609 103.76 24.1049 104.515 24.3559V25.4689C103.915 26.0439 103.079 26.3309 102.073 26.3309C101.57 26.3309 101.211 26.2229 100.923 26.0079C100.797 25.9105 100.696 25.7851 100.628 25.6417C100.559 25.4983 100.525 25.3408 100.528 25.1819C100.518 25.004 100.556 24.8267 100.638 24.6687C100.72 24.5107 100.843 24.3777 100.995 24.2839Z" fill="#1A1C3D"/>
<path d="M75.8059 44.0999C75.3029 44.6749 74.7659 45.1769 74.3699 45.4299C73.9739 45.6829 73.4719 45.8249 72.8979 45.8249C72.0719 45.8249 71.3899 45.5379 70.8509 44.8909C70.3109 44.2909 70.0249 43.4549 70.0249 42.5209C70.0249 41.5509 70.3119 40.7609 70.8509 40.1509C71.3899 39.5409 72.0709 39.2169 72.8979 39.2169C73.7959 39.2169 74.7649 39.7919 75.5909 40.7609L77.4579 38.9659C76.2379 37.3859 74.6929 36.6319 72.8259 36.6319C71.2819 36.6319 69.9259 37.2069 68.8039 38.3199C67.6819 39.4329 67.1519 40.8339 67.1519 42.5199C67.1519 44.2059 67.7269 45.6079 68.8039 46.7199C69.9169 47.8349 71.2439 48.4199 72.8239 48.4199C74.8709 48.4199 76.5239 47.5219 77.6719 45.9059L75.8039 44.0999H75.8059ZM87.4759 38.4269C87.0809 37.8519 86.5419 37.4219 85.8599 37.0969C85.1779 36.7719 84.3879 36.5939 83.5259 36.5939C81.9459 36.5939 80.6529 37.1689 79.6839 38.3179C78.7499 39.4679 78.2479 40.8679 78.2479 42.5549C78.2479 44.2789 78.7879 45.6789 79.7919 46.7549C80.8319 47.8319 82.1979 48.3709 83.8859 48.3709C85.7889 48.3709 87.3689 47.5709 88.5539 46.0729L88.6259 46.0009L86.7589 44.2059C86.5789 44.4209 86.3289 44.6359 86.1129 44.8519C85.8259 45.1019 85.5729 45.3189 85.2869 45.4519C84.8407 45.6722 84.3485 45.7829 83.8509 45.7749C83.0509 45.7749 82.4149 45.5599 81.9109 45.0929C81.4439 44.6629 81.1569 44.0879 81.0849 43.3689H88.5899L88.6259 42.3289C88.6259 41.6109 88.5179 40.8929 88.3389 40.2459C88.1599 39.5989 87.8719 38.9889 87.4769 38.4159L87.4759 38.4269ZM81.2639 41.0839C81.4079 40.5439 81.6589 40.0789 82.0179 39.7539C82.4129 39.3589 82.9159 39.1789 83.4899 39.1789C84.1719 39.1789 84.7099 39.3589 85.0699 39.7539C85.4083 40.1182 85.6113 40.5878 85.6449 41.0839H81.2639Z" fill="#1A1C3D"/>
<path d="M98.3559 37.6999C97.4939 36.9819 96.3089 36.5869 94.8359 36.5869C93.9019 36.5869 93.0059 36.8019 92.2159 37.1869C91.4619 37.5469 90.7439 38.1919 90.2759 38.9819L90.3119 39.0179L92.1419 40.7419C92.8959 39.5569 93.7219 39.1259 94.8349 39.1259C95.4349 39.1259 95.9119 39.2699 96.3069 39.5929C96.6669 39.9159 96.8819 40.3109 96.8819 40.8129V41.3529C96.1639 41.1379 95.4819 41.0299 94.7989 41.0299C93.3989 41.0299 92.2489 41.3529 91.3989 41.9999C90.5489 42.6469 90.1059 43.6159 90.1059 44.8369C90.1059 45.9139 90.4659 46.7399 91.2189 47.3869C91.9729 47.9869 92.8709 48.3209 93.9489 48.3209C95.0269 48.3209 96.0319 47.8909 96.9649 47.1359V48.0699H99.7649V40.8159C99.6569 39.4859 99.2249 38.4099 98.3649 37.6919L98.3559 37.6999ZM93.3289 43.8039C93.6519 43.5889 94.1289 43.4809 94.6939 43.4809C95.3759 43.4809 96.0939 43.6249 96.8489 43.8759V44.9889C96.2489 45.5639 95.4129 45.8509 94.4069 45.8509C93.9039 45.8509 93.5449 45.7429 93.2569 45.5279C93.1312 45.4305 93.0301 45.3051 92.9615 45.1617C92.8929 45.0183 92.8588 44.8609 92.8619 44.7019C92.8517 44.5241 92.8898 44.3468 92.972 44.1887C93.0541 44.0307 93.1775 43.8977 93.3289 43.8039Z" fill="#1A1C3D"/>
<path d="M110.564 37.9149C109.764 37.0169 108.661 36.5849 107.26 36.5849C106.147 36.5849 105.213 36.9079 104.53 37.5549V36.8729H101.765V48.1129H104.602V41.8999C104.602 41.0379 104.817 40.3559 105.202 39.8999C105.587 39.4439 106.136 39.1819 106.89 39.1819C107.536 39.1819 108.003 39.3969 108.362 39.8279C108.721 40.2589 108.902 40.8679 108.902 41.5879V48.1229H111.739V41.5879C111.739 40.0439 111.344 38.7879 110.554 37.9249L110.564 37.9149ZM57.4569 48.3649C55.2666 48.3647 53.166 47.4944 51.6172 45.9456C50.0684 44.3968 49.1982 42.2963 49.1979 40.1059C49.1982 37.9156 50.0684 35.815 51.6172 34.2662C53.166 32.7174 55.2666 31.8472 57.4569 31.8469C59.6473 31.8472 61.7478 32.7174 63.2966 34.2662C64.8454 35.815 65.7157 37.9156 65.7159 40.1059C65.7157 42.2963 64.8454 44.3968 63.2966 45.9456C61.7478 47.4944 59.6473 48.3647 57.4569 48.3649ZM57.4569 34.7649C54.5119 34.7649 52.1069 37.1709 52.1069 40.1149C52.1069 43.0589 54.5129 45.4649 57.4569 45.4649C60.4009 45.4649 62.8069 43.0589 62.8069 40.1149C62.8069 37.1709 60.4009 34.7649 57.4569 34.7649Z" fill="#1A1C3D"/>
</svg>
