<svg width="156" height="61" viewBox="0 0 156 61" fill="none" xmlns="http://www.w3.org/2000/svg">
<path d="M23.0962 23.9734L24.2402 23.9934L27.3482 20.8854L27.4982 19.5684C25.0282 17.3714 21.7782 16.0344 18.2212 16.0344C11.7812 16.0344 6.34523 20.4164 4.73523 26.3524C5.07523 26.1154 5.80023 26.2924 5.80023 26.2924L12.0122 25.2704C12.0122 25.2704 12.3322 24.7404 12.4922 24.7734C13.8257 23.3147 15.6654 22.4197 17.6361 22.271C19.6069 22.1224 21.5591 22.7312 23.0962 23.9734Z" fill="#1A1C3D"/>
<path d="M31.7262 26.3634C31.0121 23.7361 29.5469 21.3742 27.5102 19.5674L23.1082 23.9694C24.0116 24.6955 24.7407 25.6149 25.2417 26.66C25.7427 27.7052 26.003 28.8494 26.0032 30.0084V30.7854C28.1452 30.7854 29.8832 32.5284 29.8832 34.6654C29.8832 36.8024 28.1402 38.5454 26.0032 38.5454H18.2412L17.4642 39.3254V43.9834L18.2412 44.7564H26.0032C28.6764 44.7492 31.238 43.6837 33.1276 41.7928C35.0172 39.9019 36.081 37.3396 36.0862 34.6664C36.0822 31.2304 34.3502 28.1864 31.7162 26.3634H31.7262Z" fill="#1A1C3D"/>
<path d="M10.4602 44.7633H18.2202V38.5513H10.4602C9.90909 38.5516 9.36443 38.4333 8.86316 38.2043L7.74316 38.5473L4.63516 41.6553L4.36316 42.7053C6.11181 44.048 8.25652 44.7725 10.4612 44.7653L10.4602 44.7633Z" fill="#1A1C3D"/>
<path d="M10.4602 24.5764C7.78442 24.5806 5.21943 25.6455 3.32735 27.5376C1.43527 29.4296 0.370442 31.9946 0.366211 34.6704C0.366196 36.2285 0.72739 37.7654 1.42142 39.1605C2.11546 40.5555 3.12344 41.7706 4.36621 42.7104L8.86621 38.2104C8.18457 37.9037 7.60603 37.4067 7.20013 36.779C6.79424 36.1514 6.57828 35.4199 6.57821 34.6724C6.57821 32.5304 8.32121 30.7924 10.4582 30.7924C11.2054 30.7937 11.9364 31.0102 12.5638 31.4159C13.1912 31.8217 13.6885 32.3995 13.9962 33.0804L18.4962 28.5804C16.6502 26.1504 13.7362 24.5804 10.4562 24.5804L10.4602 24.5764Z" fill="#1A1C3D"/>
<path d="M51.8598 35.8288C49.7398 35.8288 47.9198 35.0788 46.3858 33.5788C44.8518 32.0788 44.0858 30.2748 44.0858 28.1708C44.0858 26.0668 44.8508 24.2628 46.3858 22.7628C47.9208 21.2628 49.7428 20.5118 51.8598 20.5118C52.831 20.4976 53.7952 20.6769 54.6964 21.0392C55.5976 21.4014 56.4176 21.9394 57.1088 22.6218L55.6318 24.0988C54.6211 23.1215 53.2646 22.584 51.8588 22.6038C50.3288 22.6038 49.0288 23.1438 47.9628 24.2308C47.4442 24.7457 47.0354 25.3604 46.7609 26.0378C46.4864 26.7151 46.352 27.441 46.3658 28.1718C46.3658 29.7178 46.8958 31.0288 47.9628 32.1118C48.4642 32.6379 49.0694 33.0541 49.7401 33.3342C50.4107 33.6142 51.1322 33.752 51.8588 33.7388C53.4168 33.7388 54.7038 33.2388 55.7288 32.2048C56.3288 31.6048 56.7288 30.7048 56.8688 29.5698H51.8628V27.4778H58.9068C58.9818 27.8498 59.0068 28.2778 59.0068 28.7778C59.0068 30.8338 58.4038 32.4638 57.1938 33.6728C55.8218 35.1078 54.0438 35.8228 51.8488 35.8228L51.8598 35.8288ZM68.2298 34.4288C67.2698 35.3688 66.0998 35.8288 64.7178 35.8288C63.3358 35.8288 62.1638 35.3588 61.2058 34.4288C60.2478 33.4988 59.7678 32.3158 59.7678 30.9088C59.7678 29.5018 60.2478 28.3288 61.2058 27.3888C62.1638 26.4488 63.3358 25.9888 64.7178 25.9888C66.0998 25.9888 67.2718 26.4588 68.2298 27.3888C69.1878 28.3188 69.6678 29.5048 69.6678 30.9088C69.6678 32.3128 69.1878 33.4888 68.2298 34.4288ZM62.7558 33.0488C63.0053 33.3199 63.309 33.5356 63.6471 33.6818C63.9853 33.8281 64.3504 33.9016 64.7188 33.8978C65.4788 33.8978 66.1328 33.6158 66.6818 33.0478C67.2308 32.4798 67.5038 31.7678 67.5038 30.9078C67.5038 30.0378 67.2338 29.3198 66.6908 28.7578C66.1478 28.1958 65.4928 27.9178 64.7188 27.9178C64.3497 27.9121 63.9834 27.9839 63.6437 28.1286C63.3041 28.2733 62.9985 28.4876 62.7468 28.7578C62.2038 29.3178 61.9338 30.0338 61.9338 30.9078C61.9338 31.7658 62.2068 32.4808 62.7558 33.0478V33.0488ZM79.0288 34.4288C78.0688 35.3688 76.8988 35.8288 75.5168 35.8288C74.1348 35.8288 72.9628 35.3588 72.0048 34.4288C71.0468 33.4988 70.5668 32.3158 70.5668 30.9088C70.5668 29.5018 71.0468 28.3288 72.0048 27.3888C72.9628 26.4488 74.1348 25.9888 75.5168 25.9888C76.8988 25.9888 78.0708 26.4588 79.0288 27.3888C79.9868 28.3188 80.4668 29.5048 80.4668 30.9088C80.4668 32.3128 79.9868 33.4888 79.0288 34.4288ZM73.5548 33.0488C73.8043 33.3199 74.108 33.5356 74.4461 33.6818C74.7843 33.8281 75.1494 33.9016 75.5178 33.8978C76.2778 33.8978 76.9318 33.6158 77.4808 33.0478C78.0298 32.4798 78.3028 31.7678 78.3028 30.9078C78.3028 30.0378 78.0328 29.3198 77.4898 28.7578C76.9468 28.1958 76.2918 27.9178 75.5178 27.9178C75.1487 27.9121 74.7824 27.9839 74.4427 28.1286C74.1031 28.2733 73.7975 28.4876 73.5458 28.7578C73.0028 29.3178 72.7328 30.0338 72.7328 30.9078C72.7328 31.7658 73.0058 32.4808 73.5548 33.0478V33.0488ZM86.1278 40.2688C85.0328 40.2688 84.1108 39.9748 83.3638 39.3888C82.6168 38.8028 82.0818 38.1248 81.7578 37.3508L83.6458 36.5678C83.8438 37.0418 84.1458 37.4528 84.5788 37.8018C85.0118 38.1508 85.5188 38.3238 86.1308 38.3238C86.9528 38.3238 87.5988 38.0738 88.0638 37.5768C88.5288 37.0798 88.7638 36.3608 88.7638 35.4268V34.7268H88.6888C88.0888 35.4738 87.2118 35.8488 86.0928 35.8488C84.8348 35.8488 83.7328 35.3688 82.7858 34.4108C82.3258 33.9579 81.9627 33.4163 81.7186 32.8187C81.4745 32.2211 81.3544 31.5802 81.3658 30.9348C81.3543 30.2853 81.4741 29.6402 81.7181 29.0383C81.9621 28.4363 82.3253 27.8898 82.7858 27.4318C83.7308 26.4688 84.8358 25.9848 86.0928 25.9848C86.6528 25.9848 87.1608 26.0898 87.6148 26.3028C88.0688 26.5158 88.4278 26.7768 88.6888 27.0858H88.7638V26.2918H90.8198V35.1488C90.8198 36.8688 90.3818 38.1528 89.5018 39.0088C88.6218 39.8588 87.4998 40.2888 86.1288 40.2888L86.1278 40.2688ZM86.2778 33.8968C86.6343 33.9031 86.9878 33.8302 87.3127 33.6834C87.6376 33.5365 87.9259 33.3195 88.1568 33.0478C88.6608 32.4808 88.9128 31.7748 88.9128 30.9258C88.9128 30.0678 88.6608 29.3498 88.1568 28.7758C87.9273 28.5019 87.6394 28.2827 87.3143 28.1343C86.9893 27.9858 86.6351 27.9119 86.2778 27.9178C85.5178 27.9178 84.8698 28.2058 84.3358 28.7758C83.8018 29.3458 83.5318 30.0638 83.5318 30.9258C83.5318 31.7718 83.7988 32.4808 84.3358 33.0478C84.8728 33.6148 85.5188 33.8968 86.2778 33.8968ZM94.4798 21.0318V35.5318H92.3128V21.0318H94.4798ZM100.42 35.8278C99.0238 35.8278 97.8598 35.3538 96.9258 34.4078C95.9918 33.4618 95.5238 32.2918 95.5238 30.8958C95.5238 29.4518 95.9738 28.2658 96.8778 27.3458C97.3019 26.8995 97.814 26.5461 98.3817 26.3078C98.9493 26.0696 99.5603 25.9518 100.176 25.9618C100.773 25.9618 101.329 26.0698 101.839 26.2888C102.313 26.4831 102.744 26.7684 103.109 27.1288C103.413 27.4312 103.682 27.7663 103.913 28.1278C104.103 28.4367 104.266 28.762 104.399 29.0998L104.624 29.6598L98.0298 32.3918C98.5298 33.3878 99.3298 33.8868 100.422 33.8868C101.418 33.8868 102.229 33.4338 102.85 32.5238L104.53 33.6458C104.155 34.2058 103.627 34.7108 102.942 35.1588C102.257 35.6068 101.414 35.8288 100.418 35.8288L100.42 35.8278ZM97.6738 30.7478L102.074 28.9178C101.948 28.6058 101.72 28.3538 101.374 28.1618C101.026 27.9669 100.633 27.8675 100.234 27.8738C99.5978 27.8738 99.0038 28.1338 98.4508 28.6568C97.8978 29.1798 97.6308 29.8788 97.6558 30.7488L97.6738 30.7478ZM116.004 35.8278C114.034 35.8278 112.384 35.1618 111.052 33.8278C109.72 32.4938 109.052 30.8328 109.052 28.8398C109.052 26.8468 109.718 25.1838 111.052 23.8518C112.386 22.5198 114.035 21.8518 116.004 21.8518C118.021 21.8518 119.66 22.5818 120.917 24.0368L119.722 25.1968C118.822 24.0628 117.572 23.4968 116.002 23.4968C114.542 23.4968 113.316 23.9888 112.302 24.9738C111.288 25.9588 110.798 27.2458 110.798 28.8398C110.798 30.4338 111.298 31.7238 112.302 32.7098C113.306 33.6958 114.535 34.1868 116.002 34.1868C117.608 34.1868 118.979 33.5388 120.102 32.2448L121.297 33.4398C120.671 34.187 119.885 34.784 118.997 35.1868C118.055 35.6199 117.029 35.8392 115.993 35.8288L116.004 35.8278ZM124.56 35.5318H122.84V22.1548H124.56V35.5318ZM127.363 27.4718C128.248 26.5448 129.363 26.0788 130.745 26.0788C132.127 26.0788 133.242 26.5438 134.127 27.4718C135.012 28.3998 135.454 29.5718 135.454 30.9568C135.454 32.3418 135.014 33.5138 134.127 34.4418C133.24 35.3698 132.127 35.8348 130.745 35.8348C129.363 35.8348 128.248 35.3698 127.363 34.4418C126.478 33.5138 126.036 32.3418 126.036 30.9568C126.036 29.5718 126.476 28.3998 127.363 27.4718ZM128.643 33.3548C129.243 33.9578 129.937 34.2608 130.743 34.2608C131.549 34.2608 132.243 33.9578 132.843 33.3548C133.443 32.7518 133.731 31.9498 133.731 30.9548C133.731 29.9598 133.434 29.1568 132.843 28.5548C132.252 27.9528 131.549 27.6488 130.743 27.6488C129.937 27.6488 129.243 27.9518 128.643 28.5548C128.043 29.1578 127.755 29.9598 127.755 30.9548C127.755 31.9498 128.052 32.7528 128.643 33.3548ZM144.963 35.5318H143.318V34.2618H143.243C142.983 34.6968 142.583 35.0688 142.048 35.3618C141.513 35.6548 140.948 35.8218 140.348 35.8218C139.201 35.8218 138.334 35.4738 137.743 34.7748C137.152 34.0758 136.855 33.1418 136.855 31.9718V26.3658H138.575V31.6898C138.575 33.3978 139.328 34.2498 140.835 34.2498C141.172 34.2569 141.506 34.1826 141.809 34.0333C142.111 33.8839 142.373 33.6639 142.573 33.3918C143.017 32.828 143.255 32.1286 143.245 31.4108V26.3658H144.965V35.5228L144.963 35.5318ZM150.791 35.8288C149.608 35.8288 148.585 35.3608 147.727 34.4268C146.869 33.4928 146.439 32.3348 146.439 30.9508C146.439 29.5668 146.869 28.4088 147.727 27.4748C148.585 26.5408 149.609 26.0728 150.791 26.0728C151.487 26.0728 152.115 26.2228 152.671 26.5198C153.227 26.8168 153.641 27.1918 153.914 27.6418H153.989L153.914 26.3718V22.1518H155.634V35.5318H153.989V34.2618H153.914C153.641 34.7088 153.227 35.0838 152.671 35.3838C152.116 35.6778 151.488 35.8288 150.791 35.8288ZM151.071 34.2588C151.459 34.264 151.844 34.1868 152.2 34.0322C152.556 33.8775 152.875 33.649 153.136 33.3618C153.703 32.7648 153.986 31.9598 153.986 30.9618C153.986 29.9638 153.704 29.1488 153.136 28.5618C152.875 28.2745 152.556 28.046 152.2 27.8914C151.844 27.7367 151.459 27.6595 151.071 27.6648C150.273 27.6648 149.588 27.9678 149.015 28.5708C148.442 29.1738 148.157 29.9758 148.157 30.9708C148.157 31.9658 148.442 32.7688 149.015 33.3708C149.274 33.659 149.591 33.8889 149.945 34.0451C150.3 34.2013 150.683 34.2803 151.071 34.2768V34.2588Z" fill="#1A1C3D"/>
</svg>
