<svg width="121" height="61" viewBox="0 0 121 61" fill="none" xmlns="http://www.w3.org/2000/svg">
<path d="M21.4579 14.7299V16.8739H36.7079V14.7299H21.4579ZM38.8699 14.7299V16.8739H60.6039C60.6039 16.8739 58.3839 14.7299 55.4439 14.7299H38.8699ZM64.8669 14.7299V16.8739H78.0139L77.2339 14.7299H64.8669ZM87.4419 14.7299L86.6619 16.8739H99.6919V14.7299H87.4419ZM21.4579 18.8999V21.0439H36.7079V18.8999H21.4579ZM38.8699 18.9029V21.0429H63.1239C63.1239 21.0429 62.8409 19.3929 62.3469 18.9029H38.8699ZM64.8669 18.9029V21.0429H79.4669L78.7449 18.9029H64.8669ZM85.8809 18.9029L85.1589 21.0429H99.6909V18.9029H85.8809ZM25.8409 23.0699V25.2169H32.4459V23.0699H25.8409ZM43.2529 23.0699V25.2169H49.8579V23.0699H43.2529ZM56.2829 23.0699V25.2169H62.8879C62.8879 25.2169 63.3079 24.0829 63.3079 23.0699H56.2829ZM69.2509 23.0699V25.2169H80.9509L80.1709 23.0699H69.2509ZM84.4439 23.0699L83.6599 25.2169H95.4279V23.0699H84.4439ZM25.8419 27.2429V29.3869H32.4469V27.2429H25.8419ZM43.2539 27.2429V29.3869H60.1239C60.1239 29.3869 61.5339 28.2869 61.9839 27.2429H43.2539ZM69.2509 27.2429V29.3869H75.8559V28.1929L76.2759 29.3869H88.3759L88.8259 28.1929V29.3869H95.4309V27.2429H83.0309L82.3729 29.0589L81.7129 27.2429H69.2509ZM25.8409 31.4129V33.5569H32.4459V31.4129H25.8409ZM43.2529 31.4129V33.5569H61.9829C61.5329 32.5169 60.1229 31.4129 60.1229 31.4129H43.2529ZM69.2499 31.4129V33.5569H75.8549V31.4129H69.2499ZM77.0549 31.4129L77.8549 33.5569H86.9269L87.6869 31.4129H77.0549ZM88.8229 31.4129V33.5569H95.4279V31.4129H88.8229ZM25.8429 35.5829V37.7269H32.4479V35.5829H25.8429ZM43.2549 35.5829V37.7269H49.8599V35.5829H43.2549ZM56.2849 35.5829V37.7269H63.3089C63.3089 36.7149 62.8889 35.5829 62.8889 35.5829H56.2849ZM69.2529 35.5829V37.7269H75.8579V35.5829H69.2529ZM78.5569 35.5829L79.3309 37.7269H85.4109L86.1909 35.5829H78.5569ZM88.8249 35.5829V37.7269H95.4299V35.5829H88.8249ZM21.5799 39.7529V41.8999H36.8299V39.7529H21.5799ZM38.8729 39.7529V41.8999H62.3509C62.8449 41.4079 63.1279 39.7529 63.1279 39.7529H38.8729ZM64.9889 39.7529V41.8999H75.8539V39.7529H64.9889ZM80.0589 39.7529L80.8549 41.8999H83.9489L84.6959 39.7529H80.0589ZM88.8249 39.7529V41.8999H99.8129V39.7529H88.8249ZM21.5799 43.9259V46.0699H36.8299V43.9259H21.5799ZM38.8729 43.9259V46.0659H55.4439C58.3839 46.0659 60.6039 43.9259 60.6039 43.9259H38.8729ZM64.9889 43.9259V46.0699H75.8539V43.9259H64.9889ZM81.5689 43.9259L82.3339 46.0639L82.4659 46.0669L83.2429 43.9269L81.5689 43.9259ZM88.8259 43.9259V46.0699H99.8139V43.9259H88.8259Z" fill="#1A1C3D"/>
</svg>
