<svg width="121" height="61" viewBox="0 0 121 61" fill="none" xmlns="http://www.w3.org/2000/svg">
<path d="M61.4732 29.7986H59.6811V22.8019C59.672 22.1097 59.6981 21.4173 59.759 20.7276C59.701 21.0731 59.5957 21.409 59.4461 21.7258L56.1638 29.8636H54.9141L51.6265 21.8071L51.3136 20.7221C51.3915 21.1832 51.3915 21.8743 51.3915 22.8741V29.8799H49.6718V19.0422H52.2504L55.1438 26.265L55.6122 27.495C55.7309 27.0472 55.8877 26.6105 56.0807 26.1894L59.0501 18.9667H61.5514L61.4732 29.7986ZM64.8335 20.4239C64.6888 20.4315 64.5442 20.408 64.4094 20.355C64.2747 20.302 64.1528 20.2206 64.0522 20.1165C63.8423 19.9502 63.7258 19.6928 63.7393 19.4257C63.7095 19.1554 63.8293 18.8906 64.0522 18.7349C64.2751 18.555 64.5477 18.4477 64.8335 18.4275C64.9781 18.4198 65.1227 18.4433 65.2575 18.4963C65.3923 18.5494 65.5141 18.6307 65.6148 18.7349C65.8246 18.9011 65.9412 19.1586 65.9276 19.4257C65.9574 19.696 65.8376 19.9607 65.6148 20.1165C65.5141 20.2206 65.3923 20.302 65.2575 20.355C65.1227 20.408 64.9781 20.4315 64.8335 20.4239ZM65.6924 29.7986H63.8948V22.0387H65.6924V29.7986ZM73.7395 29.4932C73.1137 29.8767 72.3327 30.0361 71.4735 30.0361C70.3016 30.0361 69.363 29.6527 68.6596 28.96C67.9561 28.2674 67.5745 27.347 67.5745 26.193C67.5745 24.8874 67.9651 23.8874 68.7464 23.1187C69.5277 22.35 70.544 21.9666 71.8713 21.9666C72.5159 21.9667 73.1537 22.0971 73.7466 22.35V23.9596C73.2472 23.5883 72.6485 23.3743 72.0269 23.3448C71.2481 23.3448 70.62 23.5745 70.1516 24.1132C69.6706 24.6615 69.4188 25.3738 69.4482 26.1026C69.4482 26.871 69.6832 27.5616 70.1514 28.0232C70.6342 28.4845 71.2815 28.7332 71.949 28.714C72.6114 28.7053 73.2489 28.4602 73.7466 28.0232V29.4937L73.7395 29.4932ZM80.0691 23.7314C79.7858 23.5654 79.4603 23.4856 79.13 23.5017C78.5872 23.5017 78.1909 23.7314 77.8008 24.1925C77.4108 24.6536 77.258 25.2775 77.258 26.1131V29.8025H75.4604V22.0387H77.258V23.6517C77.4057 23.1583 77.6742 22.7096 78.039 22.3461C78.3808 22.0376 78.8284 21.8724 79.2888 21.885C79.5319 21.8815 79.7726 21.9341 79.9922 22.0387L80.0691 23.7314ZM84.8335 30.0354C83.5837 30.0354 82.6453 29.652 81.9401 28.9593C81.2348 28.2667 80.855 27.2684 80.855 26.1191C80.855 24.8135 81.2456 23.8134 82.0269 23.0447C82.8082 22.276 83.8245 21.9597 85.074 21.9597C86.3234 21.9597 87.2621 22.3431 87.9674 23.0447C88.6726 23.7463 88.9747 24.7301 88.9747 26.0357C89.0077 27.1363 88.6197 28.208 87.8897 29.0322C87.0163 29.7079 85.9375 30.0629 84.8335 30.04V30.0354ZM84.9113 23.2738C84.2084 23.2738 83.6618 23.504 83.2713 23.9646C82.8808 24.4257 82.6455 25.1167 82.6455 25.9539C82.6455 26.7911 82.8805 27.413 83.2713 27.8745C83.6621 28.3361 84.2104 28.5653 84.9113 28.5653C85.6122 28.5653 86.161 28.3356 86.5514 27.8745C86.9417 27.4134 87.0942 26.7984 87.0942 25.8852C87.0942 25.0407 86.9385 24.3505 86.5514 23.8959C86.3327 23.6893 86.0749 23.5286 85.7933 23.423C85.5116 23.3174 85.2117 23.2692 84.9111 23.2811L84.9113 23.2738ZM90.2263 29.5688V27.9517C90.9295 28.4128 91.6331 28.7202 92.4144 28.7202C93.5078 28.7202 94.0544 28.4128 94.0544 27.798C94.0383 27.6345 93.985 27.4768 93.8987 27.3369C93.8057 27.1945 93.6685 27.0866 93.5081 27.0295C93.3334 26.9393 93.152 26.8623 92.9653 26.7998L92.2621 26.5701C91.9695 26.4569 91.6828 26.329 91.4031 26.1866C91.1812 26.052 90.9717 25.8977 90.7774 25.7255C90.6035 25.5519 90.4702 25.3419 90.3868 25.1108C90.2902 24.8657 90.2376 24.6056 90.2313 24.3423C90.2259 23.9952 90.3066 23.6523 90.4663 23.3441C90.6176 23.0421 90.8651 22.799 91.1697 22.6533C91.4826 22.4235 91.7955 22.3459 92.1861 22.1922C92.5708 22.1033 92.9632 22.0518 93.3579 22.0385C94.0226 22.0155 94.6855 22.1199 95.311 22.3459V23.8851C94.759 23.5105 94.1025 23.3205 93.4358 23.3425C93.2242 23.3247 93.0112 23.3505 92.81 23.4185C92.6542 23.4946 92.4971 23.4946 92.3416 23.572C92.2025 23.6315 92.091 23.7415 92.0287 23.8794C91.9659 23.9969 91.9389 24.1302 91.9508 24.2628C91.9383 24.4206 91.965 24.579 92.0285 24.7239C92.0904 24.862 92.2021 24.9718 92.3414 25.0313C92.5161 25.1215 92.6975 25.1985 92.8842 25.261C93.1192 25.3371 93.2747 25.4145 93.5874 25.4908C93.8848 25.6509 94.1982 25.7794 94.5224 25.8742C94.8353 25.9503 94.9908 26.1816 95.2256 26.3353C95.4 26.5256 95.5568 26.7314 95.694 26.9501C95.7903 27.2216 95.8428 27.5066 95.8498 27.7946C95.8498 28.178 95.7719 28.5631 95.5369 28.7928C95.3652 29.0806 95.124 29.3207 94.8353 29.491C94.4859 29.6722 94.1232 29.8263 93.7503 29.952C92.5672 30.2507 91.3163 30.114 90.2256 29.5668L90.2263 29.5688ZM101.091 30.0354C99.8412 30.0354 98.9028 29.652 98.1976 28.9593C97.4923 28.2667 97.1125 27.2684 97.1125 26.1191C97.1125 24.8135 97.5031 23.8134 98.2844 23.0447C99.0657 22.276 100.082 21.9597 101.331 21.9597C102.581 21.9597 103.52 22.3431 104.225 23.0447C104.93 23.7463 105.241 24.7356 105.241 26.0412C105.274 27.1418 104.886 28.2135 104.156 29.0377C103.271 29.7035 102.189 30.0554 101.082 30.0377L101.091 30.0354ZM101.169 23.2738C100.466 23.2738 99.9193 23.504 99.5288 23.9646C99.1383 24.4257 98.903 25.1167 98.903 25.9539C98.903 26.7911 99.138 27.413 99.5288 27.8745C99.9196 28.3361 100.468 28.5653 101.169 28.5653C101.87 28.5653 102.419 28.3356 102.809 27.8745C103.199 27.4134 103.352 26.7984 103.352 25.8852C103.352 25.0407 103.196 24.3505 102.809 23.8959C102.591 23.6866 102.333 23.5232 102.051 23.4154C101.768 23.3076 101.467 23.2576 101.165 23.2683L101.169 23.2738ZM111.399 19.8105C111.14 19.6541 110.842 19.5744 110.54 19.5807C109.681 19.5807 109.211 20.0418 109.211 21.0398V22.1164H111.008V23.4998H109.211V29.8817H107.421V23.498H106.091V22.1145H107.421V20.8845C107.421 20.04 107.656 19.4254 108.199 18.9639C108.627 18.636 109.126 18.4155 109.657 18.321C110.187 18.2266 110.732 18.2609 111.246 18.421V19.8045H111.397L111.399 19.8105ZM116.561 29.7223C116.248 29.8755 115.779 29.952 115.154 29.952C113.592 29.952 112.888 29.2612 112.888 27.8001V23.4222H111.558V22.0387H112.888V20.2704L114.685 19.8093V22.115H116.561V23.4985H114.685V27.3466C114.66 27.6954 114.742 28.0437 114.92 28.3448C115.076 28.5745 115.389 28.6522 115.779 28.6522C116.057 28.6561 116.33 28.5726 116.558 28.4135V29.7191L116.561 29.7223ZM60.6248 45.756H58.5922L57.5759 42.9909H53.1996L52.2605 45.7578H50.2297L54.371 34.9236H56.3981L60.6248 45.756ZM57.1075 41.53L55.5454 37.2279C55.4767 37.0017 55.4247 36.7708 55.3898 36.5371C55.355 36.7708 55.303 37.0017 55.2343 37.2279L53.7496 41.53H57.1075ZM67.7447 38.7591L63.524 44.3652H67.7431V45.7487H61.0158V45.0707L65.394 39.3796H61.4879V37.9961H67.8173V38.7593L67.7447 38.7591ZM76.1739 45.756H74.3763V44.5283C74.1437 44.9637 73.7929 45.3246 73.3641 45.5694C72.9354 45.8141 72.4463 45.9328 71.9531 45.9118C70.0779 45.9118 69.1392 44.8357 69.1392 42.6079V37.9957H70.9368V42.4517C70.9368 43.8346 71.4835 44.526 72.5768 44.526C72.8243 44.536 73.0711 44.4927 73.3004 44.3991C73.5297 44.3055 73.7363 44.1637 73.906 43.9834C74.2572 43.548 74.4486 43.0055 74.4486 42.4462V37.9957H76.2444L76.1739 45.756ZM83.051 39.6868C82.7676 39.5207 82.4421 39.441 82.1118 39.457C81.569 39.457 81.1727 39.6868 80.7827 40.1479C80.3926 40.609 80.2398 41.2329 80.2398 42.0685V45.7576H78.4422V37.9957H80.2398V39.6087C80.3875 39.1153 80.656 38.6666 81.0209 38.3031C81.3594 37.9975 81.7996 37.8326 82.2577 37.842C82.5009 37.8385 82.7416 37.8911 82.9612 37.9957L83.051 39.6868ZM91.0206 42.3759H85.6299C85.6299 43.0667 85.8649 43.6815 86.3331 44.0667C86.7236 44.4502 87.3494 44.6815 88.1307 44.6815C88.9789 44.7003 89.8083 44.4292 90.4817 43.913V45.2965C89.7728 45.7607 88.8325 45.9928 87.6607 45.9928C87.1548 46.0098 86.6508 45.9222 86.1804 45.7355C85.7099 45.5488 85.283 45.2671 84.9264 44.9078C84.2233 44.217 83.9101 43.217 83.9101 41.9114C83.8732 40.8329 84.263 39.7834 84.9952 38.9907C85.3417 38.6138 85.7652 38.3158 86.2369 38.1168C86.7086 37.9177 87.2176 37.8223 87.7294 37.837C88.8144 37.837 89.6046 38.1443 90.2306 38.8352C90.8566 39.526 91.0896 40.4482 91.0896 41.6754L91.0206 42.3759ZM89.3009 41.1459C89.3009 40.5311 89.1451 39.9937 88.8325 39.6868C88.6832 39.5025 88.4916 39.3569 88.2741 39.2624C88.0565 39.1679 87.8194 39.1273 87.5828 39.1439C87.3353 39.1339 87.0885 39.1772 86.8592 39.2708C86.6299 39.3644 86.4234 39.5062 86.2536 39.6866C85.863 40.07 85.7107 40.5311 85.6278 41.1456L89.3009 41.1459Z" fill="#1A1C3D"/>
<path fill-rule="evenodd" clip-rule="evenodd" d="M29.1651 19.4378L23.338 31.1737L33.5995 43.0643L14.5584 45.2259L44.1048 45.5351L29.1651 19.4378ZM28.0159 14.8049L14.6378 26.0006L4.70679 42.7558L13.1604 41.9083L28.0159 14.8049Z" fill="#1A1C3D"/>
</svg>
